<?xml version="1.0" encoding="UTF-8" standalone="no"?><!DOCTYPE svg PUBLIC "-//W3C//DTD SVG 1.1//EN" "http://www.w3.org/Graphics/SVG/1.1/DTD/svg11.dtd"><svg width="100%" height="100%" viewBox="0 0 1042 1042" version="1.1" xmlns="http://www.w3.org/2000/svg" xmlns:xlink="http://www.w3.org/1999/xlink" xml:space="preserve" xmlns:serif="http://www.serif.com/" style="fill-rule:evenodd;clip-rule:evenodd;stroke-linejoin:round;stroke-miterlimit:2;"><rect id="Artboard1" x="0" y="0" width="1041.67" height="1041.67" style="fill:none;"/><g id="Artboard11" serif:id="Artboard1"><path d="M262.197,649.953c-91.015,-40.953 -154.449,-132.46 -154.449,-238.666c0,-144.364 117.206,-261.569 261.57,-261.569c56.453,-0 108.753,17.923 151.515,48.383c42.763,-30.46 95.063,-48.383 151.516,-48.383c144.364,-0 261.569,117.205 261.569,261.569c0,106.206 -63.433,197.713 -154.448,238.666c1.931,12.807 2.933,25.918 2.933,39.261c-0,144.364 -117.206,261.57 -261.57,261.57c-144.364,-0 -261.569,-117.206 -261.569,-261.57c-0,-13.343 1.001,-26.454 2.933,-39.261Zm55.169,17.734c-0.741,7.075 -1.121,14.257 -1.121,21.527c0,112.915 91.673,204.588 204.588,204.588c112.915,0 204.588,-91.673 204.588,-204.588c0,-7.27 -0.38,-14.452 -1.121,-21.527c-16.792,3.39 -34.166,5.17 -51.951,5.17c-56.453,-0 -108.753,-17.923 -151.515,-48.383c-42.763,30.46 -95.063,48.383 -151.516,48.383c-17.786,-0 -35.159,-1.78 -51.952,-5.17Zm447.126,-73.717c66.682,-33.732 112.445,-102.905 112.445,-182.683c-0,-112.915 -91.673,-204.588 -204.588,-204.588c-39.516,0 -76.431,11.227 -107.725,30.665c41.209,46.236 66.263,107.177 66.263,173.923c0,13.343 -1.001,26.454 -2.933,39.262c62.223,27.997 111.554,79.624 136.538,143.421Zm-287.449,-356.606c-31.294,-19.438 -68.209,-30.665 -107.725,-30.665c-112.915,0 -204.588,91.673 -204.588,204.588c-0,79.778 45.762,148.951 112.444,182.683c24.984,-63.797 74.316,-115.424 136.539,-143.421c-1.932,-12.808 -2.934,-25.919 -2.934,-39.262c0,-66.746 25.054,-127.687 66.264,-173.923Zm-48.353,269.168c-43.957,22.236 -78.823,59.872 -97.484,105.794c12.35,2.33 25.09,3.549 38.112,3.549c39.516,0 76.431,-11.227 107.724,-30.664c-20.465,-22.963 -36.946,-49.553 -48.352,-78.679Zm135.934,78.679c31.294,19.437 68.209,30.664 107.725,30.664c13.022,0 25.762,-1.219 38.111,-3.549c-18.66,-45.922 -53.526,-83.558 -97.483,-105.794c-11.406,29.126 -27.887,55.716 -48.353,78.679Zm8.161,-152.397c0.741,-7.075 1.121,-14.257 1.121,-21.527c-0,-52.873 -20.102,-101.089 -53.073,-137.416c-32.97,36.327 -53.072,84.543 -53.072,137.416c-0,7.27 0.38,14.452 1.121,21.527c16.793,-3.39 34.166,-5.169 51.951,-5.169c17.786,-0 35.159,1.779 51.952,5.169Z" style="fill:#fff;"/></g></svg>