<?xml version="1.0" encoding="UTF-8" standalone="no"?><!DOCTYPE svg PUBLIC "-//W3C//DTD SVG 1.1//EN" "http://www.w3.org/Graphics/SVG/1.1/DTD/svg11.dtd"><svg width="100%" height="100%" viewBox="0 0 2509 1850" version="1.1" xmlns="http://www.w3.org/2000/svg" xmlns:xlink="http://www.w3.org/1999/xlink" xml:space="preserve" xmlns:serif="http://www.serif.com/" style="fill-rule:evenodd;clip-rule:evenodd;stroke-linejoin:round;stroke-miterlimit:2;"><g><path d="M1016.89,1201.8l-467.52,312.708l-460.45,-688.408l467.525,-312.704l460.445,688.404Z" style="fill:#f0f0f0;fill-rule:nonzero;"/><path d="M775.358,1169.16l-5.304,32.838l-232.412,-33.484l5.308,-32.833l232.408,33.479Z" style="fill:#d7d9d9;fill-rule:nonzero;"/><path d="M658.312,1052.02l33.35,4.808l-36.975,228.821l-33.349,-4.804l36.974,-228.825Z" style="fill:#d7d9d9;fill-rule:nonzero;"/><path d="M444.242,761.183c0.333,0.5 -46.521,32.421 -104.634,71.292c-58.137,38.883 -105.516,69.992 -105.85,69.492c-0.333,-0.496 46.509,-32.413 104.642,-71.296c58.117,-38.871 105.513,-69.983 105.842,-69.488Z" style="fill:#d7d9d9;fill-rule:nonzero;"/><path d="M616.175,718.025c0.333,0.5 -77.579,53.196 -173.996,117.683c-96.454,64.517 -174.887,116.392 -175.225,115.892c-0.333,-0.496 77.563,-53.183 174.017,-117.692c96.421,-64.491 174.871,-116.383 175.204,-115.883Z" style="fill:#d7d9d9;fill-rule:nonzero;"/><path d="M650.637,769.55c0.338,0.5 -77.574,53.196 -173.995,117.683c-96.454,64.517 -174.888,116.392 -175.221,115.896c-0.333,-0.5 77.562,-53.183 174.017,-117.696c96.416,-64.491 174.866,-116.379 175.199,-115.883Z" style="fill:#d7d9d9;fill-rule:nonzero;"/><path d="M685.104,821.075c0.334,0.5 -77.579,53.196 -173.996,117.687c-96.458,64.513 -174.891,116.388 -175.225,115.892c-0.333,-0.496 77.563,-53.183 174.017,-117.696c96.417,-64.491 174.871,-116.379 175.204,-115.883Z" style="fill:#d7d9d9;fill-rule:nonzero;"/><path d="M719.567,872.604c0.333,0.5 -77.58,53.196 -173.996,117.684c-96.454,64.512 -174.888,116.391 -175.225,115.891c-0.333,-0.496 77.567,-53.179 174.017,-117.692c96.42,-64.491 174.87,-116.379 175.204,-115.883Z" style="fill:#d7d9d9;fill-rule:nonzero;"/><path d="M2506.45,1552.91l-392.642,262.617l-386.691,-578.142l392.637,-262.621l386.696,578.146Z" style="fill:#f0f0f0;fill-rule:nonzero;"/><path d="M2303.6,1525.49l-4.454,27.579l-195.183,-28.121l4.458,-27.575l195.179,28.117Z" style="fill:#d7d9d9;fill-rule:nonzero;"/><path d="M2205.31,1427.12l28.004,4.029l-31.054,192.175l-28.013,-4.033l31.063,-192.171Z" style="fill:#d7d9d9;fill-rule:nonzero;"/><path d="M2025.53,1182.87c0.333,0.496 -38.967,27.366 -87.775,60.012c-48.825,32.658 -88.662,58.717 -88.996,58.217c-0.333,-0.5 38.967,-27.367 87.792,-60.021c48.8,-32.646 88.646,-58.713 88.979,-58.208Z" style="fill:#d7d9d9;fill-rule:nonzero;"/><path d="M2169.92,1146.62c0.333,0.496 -65.055,44.816 -146.029,98.979c-81.005,54.179 -146.917,97.687 -147.25,97.183c-0.334,-0.496 65.041,-44.804 146.041,-98.983c80.979,-54.163 146.904,-97.679 147.238,-97.179Z" style="fill:#d7d9d9;fill-rule:nonzero;"/><path d="M2198.87,1189.89c0.333,0.495 -65.067,44.816 -146.034,98.979c-81.004,54.179 -146.92,97.679 -147.254,97.183c-0.329,-0.496 65.042,-44.808 146.05,-98.987c80.971,-54.163 146.904,-97.675 147.238,-97.175Z" style="fill:#d7d9d9;fill-rule:nonzero;"/><path d="M2227.81,1233.17c0.334,0.495 -65.058,44.816 -146.033,98.979c-81,54.179 -146.917,97.679 -147.25,97.183c-0.333,-0.496 65.042,-44.808 146.046,-98.987c80.975,-54.163 146.904,-97.675 147.237,-97.175Z" style="fill:#d7d9d9;fill-rule:nonzero;"/><path d="M2256.75,1276.44c0.333,0.499 -65.054,44.816 -146.029,98.979c-81.004,54.179 -146.917,97.683 -147.25,97.187c-0.338,-0.5 65.037,-44.808 146.041,-98.992c80.975,-54.158 146.905,-97.674 147.238,-97.174Z" style="fill:#d7d9d9;fill-rule:nonzero;"/><path d="M1161.21,1169.45l-428.408,-229.121l337.371,-630.817l428.412,229.117l-337.375,630.821Z" style="fill:#f0f0f0;fill-rule:nonzero;"/><path d="M1087.87,972.113l-27.179,9.308l-68.988,-190.725l27.179,-9.309l68.988,190.726Z" style="fill:#d7d9d9;fill-rule:nonzero;"/><path d="M1129.54,835.287l9.9,27.367l-189.413,64.871l-9.9,-27.371l189.413,-64.867Z" style="fill:#d7d9d9;fill-rule:nonzero;"/><path d="M1264.13,553.883c-0.333,0.63 -43.787,-21.958 -97.041,-50.437c-53.271,-28.488 -96.167,-52.084 -95.834,-52.713c0.333,-0.629 43.779,21.955 97.05,50.442c53.25,28.483 96.163,52.083 95.825,52.708Z" style="fill:#d7d9d9;fill-rule:nonzero;"/><path d="M1366.93,667.354c-0.337,0.629 -72.25,-37.175 -160.6,-84.429c-88.387,-47.271 -159.737,-86.083 -159.404,-86.708c0.334,-0.629 72.233,37.171 160.617,84.437c88.354,47.254 159.721,86.075 159.387,86.7Z" style="fill:#d7d9d9;fill-rule:nonzero;"/><path d="M1341.68,714.571c-0.333,0.629 -72.246,-37.175 -160.6,-84.429c-88.383,-47.267 -159.737,-86.084 -159.4,-86.713c0.334,-0.625 72.234,37.171 160.617,84.442c88.35,47.254 159.721,86.075 159.383,86.7Z" style="fill:#d7d9d9;fill-rule:nonzero;"/><path d="M1316.42,761.788c-0.333,0.629 -72.242,-37.175 -160.596,-84.43c-88.383,-47.27 -159.737,-86.083 -159.404,-86.712c0.338,-0.625 72.233,37.171 160.617,84.441c88.354,47.25 159.725,86.075 159.383,86.701Z" style="fill:#d7d9d9;fill-rule:nonzero;"/><path d="M1291.17,809.004c-0.333,0.629 -72.246,-37.179 -160.6,-84.429c-88.383,-47.271 -159.737,-86.083 -159.4,-86.712c0.333,-0.63 72.233,37.17 160.617,84.437c88.35,47.254 159.721,86.079 159.383,86.704Z" style="fill:#d7d9d9;fill-rule:nonzero;"/><rect x="1282.66" y="3.912" width="10.762" height="183.263" style="fill:#c3c5c5;fill-rule:nonzero;"/><path d="M1037.08,408.867l501.921,-0c-0,-0 -46.342,-221.809 -254.762,-221.809c-185.384,0 -247.159,221.809 -247.159,221.809Z" style="fill:#fab915;fill-rule:nonzero;"/><rect x="1282.66" y="3.912" width="10.762" height="183.263" style="fill:#fab915;fill-rule:nonzero;"/><path d="M2405.55,1836.53c0,0.6 -538.546,1.088 -1202.72,1.088c-664.404,-0 -1202.83,-0.488 -1202.83,-1.088c0,-0.596 538.429,-1.083 1202.83,-1.083c664.175,-0 1202.72,0.487 1202.72,1.083Z" style="fill:#0c2b34;fill-rule:nonzero;"/><path d="M133.133,1575.59c14.088,0.492 27.309,8.142 36.604,18.742c9.292,10.6 14.988,23.933 18.634,37.546c7.05,26.35 2.717,57.442 -4.8,83.658c-28.521,-10.191 -46.113,-40.612 -54.067,-56.604c-12.571,-25.275 -19.941,-78.592 3.629,-83.342Z" style="fill:#fab915;fill-rule:nonzero;"/><path d="M224.617,1747.47c-9,-12.917 -9.213,-30.888 -2.1,-44.938c7.116,-14.05 20.783,-24.179 35.837,-28.804c6.958,-2.133 15.038,-3.033 21.092,1.008c5.658,3.784 8.104,11.2 7.375,17.971c-0.729,6.767 -4.159,12.959 -8.204,18.434c-13.867,18.779 -30.738,34.408 -54,36.329Z" style="fill:#fab915;fill-rule:nonzero;"/><path d="M227.754,1835.51c-0.137,0.02 -0.566,-1.934 -1.275,-5.471c-0.762,-3.909 -1.75,-8.959 -2.933,-15.021c-2.25,-12.625 -5.821,-30.579 -3.121,-50.429c2.596,-19.759 10.462,-36.655 18.708,-46.742c4.063,-5.104 7.946,-8.717 10.821,-10.937c1.392,-1.167 2.617,-1.888 3.396,-2.438c0.796,-0.525 1.233,-0.771 1.275,-0.717c0.308,0.35 -6.671,4.65 -14.383,14.942c-7.813,10.121 -15.3,26.725 -17.859,46.154c-2.658,19.446 0.634,37.238 2.538,49.933c1.021,6.371 1.846,11.538 2.316,15.13c0.476,3.583 0.651,5.575 0.517,5.596Z" style="fill:#0c2b34;fill-rule:nonzero;"/><path d="M142.333,1615.69c0.063,-0.03 0.455,0.712 1.15,2.158c0.759,1.642 1.734,3.742 2.938,6.346c2.521,5.533 6.062,13.579 10.358,23.558c8.596,19.954 20.079,47.688 32.071,78.596c11.988,30.925 22.204,59.154 29.313,79.683c3.554,10.267 6.362,18.596 8.229,24.379c0.862,2.738 1.562,4.946 2.108,6.671c0.463,1.529 0.675,2.35 0.608,2.371c-0.062,0.021 -0.4,-0.75 -0.983,-2.237c-0.637,-1.696 -1.45,-3.867 -2.462,-6.554c-2.167,-5.938 -5.159,-14.13 -8.817,-24.159c-7.442,-20.404 -17.863,-48.537 -29.838,-79.437c-11.983,-30.888 -23.258,-58.688 -31.516,-78.771c-4.059,-9.875 -7.375,-17.946 -9.779,-23.792c-1.067,-2.666 -1.926,-4.821 -2.596,-6.496c-0.575,-1.491 -0.846,-2.296 -0.784,-2.316Z" style="fill:#0c2b34;fill-rule:nonzero;"/><path d="M193.896,1777.26c-16.821,-28.62 -48.229,-48.137 -81.342,-50.537c-8.433,-0.617 -18.575,0.804 -22.333,8.379c-3.767,7.584 1.271,16.559 7.016,22.779c23.9,25.892 64.33,34.917 96.971,21.65" style="fill:#fab915;fill-rule:nonzero;"/><path d="M125.396,1749.3c0.008,-0.134 1.883,-0.059 5.279,0.196c1.7,0.116 3.779,0.266 6.158,0.716c2.375,0.438 5.142,0.7 8.079,1.517c2.963,0.729 6.234,1.454 9.617,2.671c3.446,1.021 6.988,2.496 10.709,4.071c7.354,3.337 15.149,7.708 22.575,13.383c7.37,5.746 13.595,12.167 18.658,18.463c2.433,3.229 4.758,6.283 6.571,9.395c2.004,2.988 3.491,5.988 4.887,8.7c1.5,2.663 2.384,5.3 3.359,7.509c0.987,2.212 1.604,4.208 2.095,5.837c1.013,3.254 1.504,5.058 1.375,5.1c-0.425,0.146 -2.45,-7.137 -8.066,-17.804c-1.463,-2.633 -2.996,-5.554 -5.03,-8.463c-1.841,-3.02 -4.183,-5.991 -6.612,-9.137c-5.058,-6.129 -11.204,-12.392 -18.446,-18.033c-7.292,-5.575 -14.921,-9.913 -22.112,-13.288c-3.642,-1.596 -7.109,-3.112 -10.488,-4.179c-3.308,-1.271 -6.517,-2.062 -9.421,-2.867c-11.691,-2.958 -19.233,-3.358 -19.187,-3.787Z" style="fill:#0c2b34;fill-rule:nonzero;"/><path d="M2016.78,443.392c-12.25,2.821 -18.217,16.916 -19.375,29.433c-1.158,12.521 0.438,25.742 -4.821,37.163c-5.92,12.854 -20.054,22.329 -20.525,36.47c-0.283,8.625 4.834,16.734 4.592,25.354c-0.404,14.167 -14.85,24.867 -15.608,39.017c-0.542,10.188 6.245,19.963 4.612,30.034c-1.275,7.841 -7.375,14.016 -9.954,21.524c-5.142,14.971 5.142,31.45 18.537,39.88c14.93,9.387 34.046,11.812 50.846,6.446c16.8,-5.367 30.967,-18.43 37.688,-34.734c7.412,-17.996 5.791,-38.258 4.179,-57.654c-5.021,-60.438 -8.75,-120.983 -11.188,-181.583" style="fill:#0c2b34;fill-rule:nonzero;"/><path d="M1981.21,656.679c-0.262,-0.241 3.351,-1.312 5.596,-6.658c1.092,-2.617 1.65,-6.129 1.43,-10.171c-0.142,-4.071 -1.53,-8.5 -3.042,-13.492c-1.396,-4.954 -3.213,-10.695 -2.171,-17.087c1.05,-6.488 5.692,-11.813 9.929,-17.05c2.129,-2.654 4.275,-5.409 5.625,-8.55c1.421,-3.104 1.721,-6.658 0.654,-9.992c-2.154,-6.808 -8.825,-11.812 -11.887,-19.675c-1.517,-3.937 -1.533,-8.262 -0.667,-12.158c0.821,-3.934 2.417,-7.5 4.021,-10.904c3.262,-6.784 6.854,-13.005 8.279,-19.604c2.921,-13.217 1.558,-25.834 3.55,-36.196c1.8,-10.384 6.188,-18.192 10.534,-22.205c2.116,-2.074 4.166,-3.179 5.504,-3.92c1.425,-0.613 2.179,-0.896 2.204,-0.829c0.142,0.233 -3.088,1.225 -7.113,5.345c-4.016,4.063 -8.046,11.7 -9.621,21.863c-0.825,5.054 -0.95,10.737 -1.158,16.837c-0.212,6.096 -0.404,12.717 -1.954,19.559c-1.45,6.933 -5.142,13.4 -8.304,20.062c-3.134,6.546 -6.013,14.221 -3.242,21.396c2.646,7.092 9.358,12.129 11.879,19.792c1.234,3.812 0.83,8.037 -0.779,11.454c-1.529,3.475 -3.8,6.317 -5.971,8.983c-4.358,5.267 -8.716,10.279 -9.712,16.108c-1.042,5.8 0.562,11.396 1.879,16.346c1.396,4.959 2.742,9.625 2.775,13.863c0.108,4.2 -0.596,7.858 -1.863,10.562c-1.258,2.721 -2.979,4.4 -4.27,5.259c-1.284,0.879 -2.105,1.062 -2.105,1.062Z" style="fill:#335863;fill-rule:nonzero;"/><path d="M1948.4,755.437l-37.608,108.425l-156.85,8.409l-26.154,58.2l163.754,16.567c32.654,13.5 69.958,-3.046 81.875,-36.309l43.7,-121.979l-68.717,-33.313Z" style="fill:#c18573;fill-rule:nonzero;"/><path d="M2272.84,1777.65c-0,0 -114.95,-365.079 -117.384,-376.929c-2.208,-10.713 41.713,-273.429 47.246,-341.425l-155.313,5.792c0,-0 -0.004,0.412 -0.012,1.129l-66.017,3.662l59.13,746.642l71.47,-0l-7.087,-247.713c44.066,118.317 107.225,238.892 107.225,238.892l60.742,-30.05Z" style="fill:#c18573;fill-rule:nonzero;"/><path d="M2107.79,1657.59c0.063,-2.267 -0.866,-82.996 -0.866,-82.996c-0.892,4.829 -27.4,-70.096 -26.758,-74.65c0.329,-2.359 27.624,157.646 27.624,157.646Z" style="fill:#ae6859;fill-rule:nonzero;"/><path d="M2077.14,1464.47c-0.167,-0 -0.321,1.608 -0.463,4.525c-0.154,2.921 -0.187,7.154 0.096,12.379c0.1,2.621 0.375,5.475 0.712,8.538c0.392,3.054 0.809,6.329 1.517,9.725c1.296,6.816 3.296,14.187 5.842,21.754c5.187,15.1 10.917,28.312 14.983,37.895c1.925,4.371 3.579,8.134 4.971,11.288c1.221,2.646 1.971,4.083 2.121,4.021c0.154,-0.059 -0.304,-1.613 -1.263,-4.367c-0.954,-2.754 -2.416,-6.708 -4.275,-11.571c-3.671,-9.746 -9.146,-23.058 -14.287,-38.025c-2.521,-7.496 -4.554,-14.737 -5.946,-21.429c-0.758,-3.329 -1.242,-6.546 -1.708,-9.55c-0.421,-3.008 -0.788,-5.816 -0.992,-8.4c-0.492,-5.154 -0.717,-9.354 -0.846,-12.262c-0.141,-2.904 -0.3,-4.517 -0.462,-4.521Z" style="fill:#ae6859;fill-rule:nonzero;"/><path d="M2039.15,1820.2l-0.029,-6.712l73.204,-3.188l0.204,27.688l-4.517,0.3c-20.096,1.179 -102.258,4.566 -115.708,0.537c-14.996,-4.5 46.846,-18.625 46.846,-18.625Z" style="fill:#24454e;fill-rule:nonzero;"/><path d="M2113.55,1836.32c-0,0.029 -0.429,0.075 -1.254,0.137c-1.079,0.067 -2.263,0.146 -3.596,0.234c-3.596,0.166 -8.017,0.37 -13.233,0.616c-11.18,0.438 -26.634,0.846 -43.705,0.925c-17.079,0.071 -32.537,-0.2 -43.716,-0.541c-5.221,-0.201 -9.646,-0.367 -13.242,-0.505c-1.333,-0.075 -2.517,-0.141 -3.596,-0.2c-0.825,-0.054 -1.254,-0.1 -1.254,-0.125c0,-0.033 0.433,-0.05 1.258,-0.05c1.084,0.009 2.267,0.021 3.6,0.034c3.6,0.058 8.025,0.133 13.246,0.216c11.179,0.188 26.629,0.359 43.7,0.288c17.063,-0.079 32.508,-0.383 43.688,-0.667c5.22,-0.133 9.646,-0.246 13.241,-0.337c1.334,-0.025 2.521,-0.046 3.6,-0.067c0.83,-0.004 1.259,0.008 1.263,0.042Z" style="fill:#0c2b34;fill-rule:nonzero;"/><path d="M2015.43,1838.67c-0.271,0.037 -0.487,-3.125 -2.496,-6.308c-1.954,-3.221 -4.679,-4.825 -4.529,-5.051c0.046,-0.22 3.175,1.142 5.279,4.588c2.142,3.417 1.963,6.825 1.746,6.771Z" style="fill:#0c2b34;fill-rule:nonzero;"/><path d="M2036.88,1827.69c-0.204,0.133 -1.237,-1.117 -2.304,-2.788c-1.071,-1.666 -1.771,-3.129 -1.562,-3.262c0.204,-0.129 1.237,1.12 2.304,2.787c1.071,1.675 1.766,3.129 1.562,3.263Z" style="fill:#0c2b34;fill-rule:nonzero;"/><path d="M2042.77,1824.55c-0.163,0.183 -1.317,-0.579 -2.571,-1.704c-1.263,-1.121 -2.15,-2.179 -1.988,-2.359c0.159,-0.183 1.313,0.58 2.571,1.7c1.258,1.125 2.15,2.18 1.988,2.363Z" style="fill:#0c2b34;fill-rule:nonzero;"/><path d="M2046.47,1817.66c0.004,0.246 -1.696,0.467 -3.796,0.501c-2.104,0.029 -3.809,-0.142 -3.813,-0.388c-0.004,-0.242 1.696,-0.462 3.8,-0.496c2.1,-0.029 3.805,0.142 3.809,0.383Z" style="fill:#0c2b34;fill-rule:nonzero;"/><path d="M2047.73,1812.81c0.088,0.217 -1.766,1.059 -4.233,1.251c-2.467,0.2 -4.429,-0.342 -4.379,-0.571c0.037,-0.25 1.962,-0.117 4.308,-0.313c2.342,-0.175 4.229,-0.612 4.304,-0.367Z" style="fill:#0c2b34;fill-rule:nonzero;"/><path d="M2034.39,1821.35c0.005,0.096 -1.791,0.321 -4.683,-0.017c-1.442,-0.166 -3.15,-0.5 -4.983,-1.079c-0.917,-0.321 -1.871,-0.562 -2.858,-1.162c-0.463,-0.309 -0.98,-0.742 -1.163,-1.455c-0.196,-0.699 0.175,-1.487 0.7,-1.87c4.467,-2.338 8.954,0.166 10.625,2.47c0.917,1.18 1.342,2.325 1.537,3.121c0.192,0.796 0.18,1.255 0.125,1.263c-0.162,0.058 -0.32,-1.842 -2.145,-3.983c-0.896,-1.05 -2.263,-2.075 -4.009,-2.588c-1.654,-0.483 -4.004,-0.604 -5.575,0.4c-0.741,0.554 -0.45,1.429 0.379,1.917c0.771,0.495 1.767,0.791 2.634,1.116c1.775,0.6 3.429,0.992 4.825,1.238c2.804,0.483 4.591,0.483 4.591,0.629Z" style="fill:#0c2b34;fill-rule:nonzero;"/><path d="M2033.17,1821.58c-0.067,0.05 -0.763,-1.141 -0.554,-3.25c0.112,-1.033 0.483,-2.258 1.266,-3.42c0.821,-1.042 1.88,-2.48 3.888,-2.4c1.083,0.133 1.621,1.366 1.45,2.154c-0.079,0.825 -0.446,1.529 -0.783,2.091c-0.692,1.175 -1.479,2.125 -2.205,2.842c-1.462,1.442 -2.62,1.992 -2.67,1.904c-0.084,-0.112 0.929,-0.841 2.216,-2.329c0.638,-0.742 1.33,-1.683 1.95,-2.812c0.638,-0.996 1.071,-2.771 -0.108,-2.98c-1.167,-0.112 -2.358,1.063 -3.071,1.996c-0.733,1.017 -1.137,2.109 -1.312,3.05c-0.35,1.909 0.087,3.121 -0.067,3.154Z" style="fill:#0c2b34;fill-rule:nonzero;"/><path d="M2111.98,1816.39c-0.012,0.167 -2.083,-0.187 -5.375,0.213c-3.258,0.375 -7.791,1.729 -11.72,4.879c-3.934,3.163 -6.234,7.292 -7.301,10.396c-1.1,3.125 -1.199,5.225 -1.366,5.204c-0.054,-0.004 -0.079,-0.529 -0.008,-1.467c0.075,-0.945 0.295,-2.304 0.779,-3.933c0.946,-3.233 3.241,-7.591 7.341,-10.887c4.1,-3.288 8.85,-4.588 12.213,-4.813c1.696,-0.121 3.071,-0.046 4.004,0.088c0.937,0.133 1.446,0.27 1.433,0.32Z" style="fill:#0c2b34;fill-rule:nonzero;"/><path d="M2076.93,1830.51c0.033,0.23 -4.721,0.988 -10.638,1.009c-5.92,0.041 -10.675,-0.667 -10.645,-0.896c0.021,-0.254 4.779,0.054 10.641,0.017c5.867,-0.025 10.613,-0.384 10.642,-0.13Z" style="fill:#0c2b34;fill-rule:nonzero;"/><path d="M2091.2,1830.36c0.179,0.175 -0.388,1.009 -0.867,2.1c-0.496,1.092 -0.746,2.063 -0.991,2.046c-0.238,0 -0.384,-1.146 0.183,-2.404c0.562,-1.262 1.521,-1.921 1.675,-1.742Z" style="fill:#0c2b34;fill-rule:nonzero;"/><path d="M2096.55,1823.64c0.171,0.175 -0.296,0.929 -1.046,1.695c-0.754,0.767 -1.5,1.255 -1.675,1.084c-0.17,-0.171 0.292,-0.933 1.046,-1.7c0.746,-0.767 1.5,-1.246 1.675,-1.079Z" style="fill:#0c2b34;fill-rule:nonzero;"/><path d="M2104.24,1820.55c-0.049,0.25 -1.016,0.242 -2.083,0.625c-1.079,0.354 -1.841,0.95 -2.033,0.788c-0.192,-0.134 0.416,-1.171 1.746,-1.621c1.325,-0.463 2.446,-0.017 2.37,0.208Z" style="fill:#0c2b34;fill-rule:nonzero;"/><path d="M2109.71,1819.09c0.092,0.229 -0.329,0.6 -0.929,0.837c-0.604,0.242 -1.166,0.246 -1.254,0.021c-0.091,-0.229 0.329,-0.604 0.929,-0.838c0.604,-0.241 1.167,-0.245 1.254,-0.02Z" style="fill:#0c2b34;fill-rule:nonzero;"/><path d="M2210.67,1813.75l-2.779,-6.112l65.479,-32.9l11.52,25.175l-3.995,2.129c-17.846,9.304 -91.413,46.05 -105.338,47.879c-15.521,2.041 35.113,-36.171 35.113,-36.171Z" style="fill:#24454e;fill-rule:nonzero;"/><path d="M2285.13,1797.97c0.017,0.025 -0.358,0.246 -1.083,0.641c-0.954,0.504 -2,1.059 -3.188,1.68c-3.208,1.629 -7.158,3.625 -11.82,5.987c-10.017,4.983 -23.95,11.683 -39.488,18.75c-15.554,7.058 -29.767,13.142 -40.108,17.408c-4.842,1.959 -8.946,3.617 -12.279,4.967c-1.255,0.479 -2.363,0.904 -3.371,1.292c-0.771,0.287 -1.183,0.425 -1.192,0.396c-0.012,-0.03 0.379,-0.221 1.125,-0.563c0.996,-0.429 2.075,-0.904 3.3,-1.442c3.309,-1.421 7.379,-3.162 12.175,-5.225c10.279,-4.412 24.446,-10.583 39.984,-17.641c15.533,-7.059 29.495,-13.667 39.583,-18.5c4.704,-2.263 8.696,-4.175 11.937,-5.734c1.213,-0.57 2.284,-1.075 3.259,-1.533c0.754,-0.342 1.154,-0.508 1.166,-0.483Z" style="fill:#0c2b34;fill-rule:nonzero;"/><path d="M2196.6,1840.31c-0.233,0.142 -1.729,-2.65 -4.863,-4.733c-3.1,-2.137 -6.25,-2.488 -6.208,-2.754c-0.037,-0.221 3.371,-0.263 6.704,2.021c3.354,2.241 4.583,5.425 4.367,5.466Z" style="fill:#0c2b34;fill-rule:nonzero;"/><path d="M2211.66,1821.5c-0.13,0.204 -1.588,-0.512 -3.242,-1.596c-1.663,-1.087 -2.9,-2.133 -2.763,-2.333c0.134,-0.208 1.584,0.508 3.246,1.592c1.654,1.087 2.892,2.133 2.759,2.337Z" style="fill:#0c2b34;fill-rule:nonzero;"/><path d="M2215.75,1816.23c-0.071,0.234 -1.434,0.009 -3.042,-0.5c-1.612,-0.508 -2.858,-1.108 -2.779,-1.341c0.075,-0.234 1.437,-0.009 3.042,0.499c1.608,0.509 2.854,1.109 2.779,1.342Z" style="fill:#0c2b34;fill-rule:nonzero;"/><path d="M2216.3,1808.42c0.104,0.225 -1.358,1.125 -3.258,2.017c-1.909,0.887 -3.533,1.425 -3.638,1.208c-0.1,-0.221 1.359,-1.121 3.263,-2.013c1.904,-0.891 3.533,-1.429 3.633,-1.212Z" style="fill:#0c2b34;fill-rule:nonzero;"/><path d="M2215.47,1803.49c0.166,0.163 -1.175,1.688 -3.355,2.871c-2.166,1.196 -4.179,1.505 -4.224,1.28c-0.067,-0.251 1.745,-0.917 3.804,-2.051c2.066,-1.124 3.604,-2.291 3.775,-2.1Z" style="fill:#0c2b34;fill-rule:nonzero;"/><path d="M2206.79,1816.74c0.045,0.087 -1.5,1.033 -4.275,1.904c-1.384,0.437 -3.084,0.833 -4.996,1.058c-0.963,0.083 -1.929,0.254 -3.079,0.108c-0.554,-0.091 -1.2,-0.275 -1.655,-0.845c-0.47,-0.559 -0.454,-1.43 -0.129,-2c3.117,-3.955 8.238,-3.517 10.705,-2.096c1.32,0.7 2.174,1.575 2.679,2.216c0.5,0.654 0.675,1.071 0.633,1.1c-0.129,0.121 -1.05,-1.545 -3.592,-2.754c-1.246,-0.592 -2.908,-0.962 -4.712,-0.716c-1.709,0.237 -3.904,1.087 -4.925,2.649c-0.45,0.809 0.175,1.484 1.129,1.592c0.908,0.133 1.942,0 2.863,-0.062c1.866,-0.175 3.533,-0.496 4.908,-0.85c2.758,-0.705 4.383,-1.438 4.446,-1.304Z" style="fill:#0c2b34;fill-rule:nonzero;"/><path d="M2205.78,1817.45c-0.041,0.075 -1.162,-0.729 -1.837,-2.737c-0.321,-0.988 -0.484,-2.263 -0.246,-3.642c0.325,-1.288 0.704,-3.029 2.562,-3.779c1.046,-0.325 3.488,1.779 3.659,2.566c0.258,0.784 -1.238,0.379 -1.308,1.038c-0.155,1.35 -0.484,2.537 -0.851,3.492c-0.741,1.912 -1.57,2.887 -1.654,2.833c-0.12,-0.075 0.504,-1.154 1.067,-3.038c0.275,-0.937 0.525,-2.083 0.625,-3.362c0.175,-1.171 -0.158,-2.967 -1.312,-2.675c-1.117,0.379 -1.721,1.933 -1.992,3.079c-0.246,1.225 -0.171,2.388 0.054,3.321c0.458,1.879 1.358,2.808 1.233,2.904Z" style="fill:#0c2b34;fill-rule:nonzero;"/><path d="M2275.55,1780.43c0.054,0.154 -1.983,0.679 -4.817,2.392c-2.82,1.675 -6.4,4.767 -8.696,9.25c-2.291,4.496 -2.699,9.204 -2.4,12.475c0.276,3.304 1.046,5.258 0.888,5.308c-0.054,0.017 -0.296,-0.446 -0.612,-1.337c-0.317,-0.892 -0.676,-2.221 -0.9,-3.908c-0.463,-3.338 -0.15,-8.251 2.237,-12.934c2.396,-4.679 6.196,-7.817 9.171,-9.396c1.491,-0.808 2.779,-1.3 3.687,-1.562c0.909,-0.267 1.43,-0.342 1.442,-0.288Z" style="fill:#0c2b34;fill-rule:nonzero;"/><path d="M2249.35,1807.67c0.121,0.196 -3.9,2.829 -9.288,5.279c-5.387,2.463 -10.012,3.767 -10.083,3.546c-0.079,-0.246 4.384,-1.908 9.717,-4.35c5.342,-2.421 9.529,-4.7 9.654,-4.475Z" style="fill:#0c2b34;fill-rule:nonzero;"/><path d="M2262.3,1801.69c0.238,0.088 0.063,1.08 0.075,2.271c-0.012,1.196 0.163,2.184 -0.075,2.275c-0.212,0.096 -0.812,-0.891 -0.812,-2.275c-0,-1.379 0.596,-2.366 0.812,-2.271Z" style="fill:#0c2b34;fill-rule:nonzero;"/><path d="M2264.44,1793.37c0.229,0.087 0.112,0.966 -0.259,1.979c-0.366,1.004 -0.858,1.754 -1.083,1.666c-0.229,-0.079 -0.117,-0.966 0.254,-1.974c0.371,-1.009 0.859,-1.755 1.088,-1.671Z" style="fill:#0c2b34;fill-rule:nonzero;"/><path d="M2270.19,1787.4c0.054,0.25 -0.83,0.642 -1.65,1.425c-0.838,0.767 -1.284,1.625 -1.529,1.55c-0.234,-0.038 -0.1,-1.242 0.924,-2.192c1.021,-0.966 2.225,-1.016 2.255,-0.783Z" style="fill:#0c2b34;fill-rule:nonzero;"/><path d="M2274.59,1783.83c0.174,0.171 -0.055,0.683 -0.513,1.146c-0.45,0.467 -0.958,0.7 -1.133,0.529c-0.175,-0.171 0.054,-0.683 0.504,-1.146c0.454,-0.462 0.967,-0.7 1.142,-0.529Z" style="fill:#0c2b34;fill-rule:nonzero;"/><path d="M2192.63,935.729l-12.192,-148.742l62.617,1.117c0,0 2.9,-21.929 -6.325,-70.037c-5.658,-29.496 -25.304,-47.592 -47.337,-58.342l0.004,-0.392l-1.908,-0.5c-28.026,-13.116 -57.355,-14.966 -57.355,-14.966l-76.862,0.887c-0,0 -58.717,-7.325 -91.217,34.533c-12.521,16.121 -51.258,126.48 -51.258,126.48l92.254,44.433l-8.779,-61.196c-0,0 1.746,44.367 7.408,58.425c3.154,7.834 12.292,32.15 12.292,32.15l-1.196,73.396l179.854,-17.246Z" style="fill:#fab915;fill-rule:nonzero;"/><path d="M2150.22,765.396l-11.404,48.608l107.633,0l-7.083,-81.491l-89.146,32.883Z" style="fill:#fab915;fill-rule:nonzero;"/><path d="M2246.45,814.004c0.008,-0.321 -5.429,-0.891 -14.246,-1.412c-8.825,-0.517 -21.029,-0.955 -34.521,-0.892c-13.491,0.067 -25.696,0.65 -34.517,1.35c-8.812,0.696 -14.229,1.442 -14.204,1.754c0.021,0.342 5.48,0.188 14.3,-0.079c8.813,-0.267 20.984,-0.587 34.434,-0.654c13.45,-0.058 25.625,0.112 34.446,0.2c8.82,0.092 14.291,0.066 14.308,-0.267Z" style="fill:#0c2b34;fill-rule:nonzero;"/><path d="M2145.58,732.113c-0.329,0.012 -0.441,4.737 -0.358,12.366c0.079,7.625 0.358,18.154 0.804,29.779c0.454,11.625 0.996,22.146 1.504,29.759c0.509,7.608 0.992,12.308 1.317,12.295c0.325,-0.012 0.442,-4.737 0.358,-12.362c-0.079,-7.625 -0.35,-18.158 -0.804,-29.783c-0.454,-11.625 -0.991,-22.146 -1.508,-29.755c-0.509,-7.608 -0.988,-12.308 -1.313,-12.299Z" style="fill:#0c2b34;fill-rule:nonzero;"/><path d="M2136.2,946.975c-6.062,0 -11.767,-1.492 -17.117,-4.196l49.459,-4.742c-12.633,8.642 -29.733,8.846 -29.733,8.846c-0.88,0.063 -1.746,0.092 -2.609,0.092Z" style="fill:#a8abab;fill-rule:nonzero;"/><path d="M2119.09,942.779c-52.27,-26.408 -71.441,-168.566 -71.441,-168.566l131.179,144.266l0,7.921c-2.417,5 -6.104,8.779 -10.279,11.637l-49.459,4.742Z" style="fill:#be8e0e;fill-rule:nonzero;"/><path d="M2148.37,814.004c0.175,1.496 0.346,2.308 0.479,2.308c0.108,-0.004 0.192,-0.5 0.25,-1.429c0.325,0.084 1.179,0.117 2.496,0.117c0.858,0 1.917,-0.017 3.158,-0.042l-13.708,29.817l-8.338,-15.258l12.517,-84.567c0.088,7.583 0.367,17.921 0.804,29.308c0.104,2.609 0.213,5.159 0.321,7.634c0.375,8.566 0.792,16.22 1.183,22.125c0.296,4.437 0.579,7.887 0.838,9.987Z" style="fill:#aa7f08;"/><path d="M2151.6,815c-1.317,0 -2.171,-0.033 -2.496,-0.117c-0,-0.025 -0,-0.05 0.008,-0.079l5.655,0.138l-0.009,0.016c-1.241,0.025 -2.3,0.042 -3.158,0.042Z" style="fill:#011721;fill-rule:nonzero;"/><path d="M2148.85,816.312c-0.133,0 -0.304,-0.812 -0.479,-2.308c-0.259,-2.1 -0.542,-5.55 -0.838,-9.987c-0.391,-5.905 -0.808,-13.559 -1.183,-22.125c-0.108,-2.475 -0.217,-5.025 -0.321,-7.634c-0.437,-11.387 -0.716,-21.725 -0.804,-29.308l0.358,-2.383l3.375,72.237l0.15,0c-0.008,0.029 -0.008,0.054 -0.008,0.079c-0.058,0.929 -0.142,1.425 -0.25,1.429Z" style="fill:#011721;fill-rule:nonzero;"/><path d="M2013.97,879.579c-0.146,0.05 -0.783,-1.429 -1.821,-4.15c-1.042,-2.716 -2.433,-6.696 -4.042,-11.646c-3.212,-9.896 -7.183,-23.75 -10.291,-39.354c-3.096,-15.612 -4.609,-29.971 -5.1,-40.379c-0.254,-5.204 -0.329,-9.417 -0.254,-12.329c0.058,-2.913 0.166,-4.521 0.316,-4.525c0.342,-0.004 0.575,6.421 1.467,16.75c0.883,10.329 2.625,24.546 5.696,40.062c3.096,15.505 6.804,29.35 9.637,39.334c1.321,4.629 2.446,8.575 3.371,11.821c0.792,2.799 1.162,4.37 1.021,4.416Z" style="fill:#0c2b34;fill-rule:nonzero;"/><path d="M2041.16,930.55c-0.575,0.171 -2.237,-3.654 -3.716,-8.546c-1.479,-4.896 -2.217,-9.004 -1.642,-9.179c0.575,-0.171 2.237,3.654 3.717,8.55c1.483,4.892 2.216,9 1.641,9.175Z" style="fill:#0c2b34;fill-rule:nonzero;"/><path d="M2050.45,929.871c-0.55,0.142 -2.367,-5.6 -2.454,-12.967c-0.129,-7.362 1.517,-13.158 2.075,-13.029c0.617,0.113 -0.033,5.892 0.092,13c0.083,7.104 0.904,12.867 0.287,12.996Z" style="fill:#0c2b34;fill-rule:nonzero;"/><path d="M2004.92,852.229c-0.267,0.538 -21.738,-9.65 -47.95,-22.746c-26.221,-13.104 -47.254,-24.158 -46.983,-24.691c0.266,-0.538 21.733,9.645 47.954,22.75c26.208,13.096 47.246,24.154 46.979,24.687Z" style="fill:#0c2b34;fill-rule:nonzero;"/><path d="M2042.76,659.133c0.48,-21.079 0.596,-43.275 0.596,-43.275c0,0 -27.033,-5.212 -31.746,-40.787c-4.491,-33.925 8.075,-113.529 8.075,-113.529c39.492,-14.929 80.534,-1.396 107.592,30.604l-6.717,171.141c-0.779,19.867 -18.483,35.021 -39.75,34.026c-21.483,-1.009 -38.508,-18.092 -38.05,-38.18Z" style="fill:#c18573;fill-rule:nonzero;"/><path d="M2017.63,525.163c-0.15,2.395 1.759,4.499 4.259,4.695c2.5,0.2 4.641,-1.579 4.787,-3.975c0.15,-2.396 -1.758,-4.5 -4.254,-4.7c-2.504,-0.2 -4.646,1.584 -4.792,3.98Z" style="fill:#0c2b34;fill-rule:nonzero;"/><path d="M2015.94,519.192c0.55,0.608 4.058,-1.854 8.945,-1.713c4.888,0.071 8.409,2.679 8.955,2.092c0.27,-0.258 -0.276,-1.342 -1.809,-2.521c-1.512,-1.171 -4.108,-2.342 -7.15,-2.404c-3.05,-0.067 -5.637,0.991 -7.142,2.1c-1.529,1.112 -2.066,2.171 -1.799,2.446Z" style="fill:#0c2b34;fill-rule:nonzero;"/><path d="M2067.24,528.25c-0.145,2.396 1.763,4.496 4.263,4.7c2.496,0.196 4.646,-1.579 4.792,-3.979c0.146,-2.396 -1.763,-4.5 -4.263,-4.7c-2.496,-0.2 -4.646,1.583 -4.792,3.979Z" style="fill:#0c2b34;fill-rule:nonzero;"/><path d="M2066.91,522.283c0.55,0.609 4.059,-1.85 8.946,-1.712c4.884,0.071 8.408,2.679 8.959,2.096c0.262,-0.263 -0.28,-1.342 -1.817,-2.521c-1.508,-1.175 -4.1,-2.342 -7.15,-2.409c-3.042,-0.062 -5.633,0.992 -7.138,2.105c-1.529,1.112 -2.07,2.17 -1.8,2.441Z" style="fill:#0c2b34;fill-rule:nonzero;"/><path d="M2048.23,558.083c0.029,-0.275 -2.996,-0.879 -7.904,-1.633c-1.246,-0.162 -2.421,-0.442 -2.608,-1.3c-0.275,-0.908 0.283,-2.242 0.929,-3.679c1.25,-2.988 2.562,-6.125 3.937,-9.408c5.475,-13.405 9.475,-24.438 8.93,-24.655c-0.542,-0.216 -5.417,10.471 -10.896,23.875c-1.317,3.309 -2.58,6.459 -3.779,9.471c-0.513,1.409 -1.367,2.996 -0.78,4.883c0.317,0.942 1.213,1.642 2.009,1.88c0.791,0.266 1.495,0.295 2.112,0.35c4.95,0.396 8.021,0.495 8.05,0.216Z" style="fill:#0c2b34;fill-rule:nonzero;"/><path d="M2043.35,615.858c0,0 23.796,2.15 47.775,-11.437c0,-0 -12.137,24.041 -47.508,19.812l-0.267,-8.375Z" style="fill:#ae6859;fill-rule:nonzero;"/><path d="M2082.56,508.179c-1.004,1.529 -4.721,0.85 -8.887,0.1c-4.15,-0.837 -7.858,-1.575 -8.229,-3.367c-0.413,-1.716 3.891,-4.091 9.45,-3.029c5.558,1.054 8.683,4.85 7.666,6.296Z" style="fill:#0c2b34;fill-rule:nonzero;"/><path d="M2033.95,501.004c-0.379,1.779 -4.363,2.429 -8.954,2.667c-4.596,0.187 -8.617,-0.096 -9.159,-1.838c-0.55,-1.683 3.334,-4.421 8.859,-4.666c5.525,-0.263 9.641,2.108 9.254,3.837Z" style="fill:#0c2b34;fill-rule:nonzero;"/><path d="M2048.31,569.787c-1.033,-0.283 -2.191,0.301 -2.708,1.238c-0.617,1.112 -0.333,2.646 0.642,3.467c0.97,0.821 2.529,0.841 3.52,0.05c1.001,-0.796 1.321,-2.317 0.738,-3.45c-0.583,-1.13 -2.013,-1.746 -3.238,-1.392" style="fill:#ae6859;fill-rule:nonzero;"/><path d="M2049.45,570.271c0.221,-0.196 -0.779,-1.396 -2.917,-0.934c-0.983,0.221 -2.279,1.109 -2.675,2.621c-0.387,1.425 -0.033,3.275 1.475,4.43c1.563,1.104 3.446,0.874 4.688,0.029c1.329,-0.875 1.708,-2.475 1.5,-3.475c-0.429,-2.196 -2.054,-2.546 -2.1,-2.238c-0.184,0.275 0.567,1.034 0.425,2.333c-0.075,0.638 -0.375,1.23 -0.992,1.53c-0.604,0.333 -1.562,0.329 -2.112,-0.092c-0.575,-0.404 -0.871,-1.317 -0.75,-2.017c0.087,-0.696 0.554,-1.221 1.121,-1.541c1.158,-0.654 2.187,-0.346 2.337,-0.646Z" style="fill:#0c2b34;fill-rule:nonzero;"/><path d="M2110.9,533.946c-4.212,9.766 -14.5,17.291 -13.071,27.833c0.917,6.808 5.284,13.154 4.433,19.967c-1.066,8.562 -9.958,14.496 -11.212,23.025c-1.546,10.467 8.633,18.6 12.7,28.367c5.921,14.225 -1.654,30.216 -1.833,45.62c-0.271,23.596 19.795,45.638 43.308,47.575c9.517,0.784 20.229,-2.087 25.163,-10.258c4.066,-6.746 3.254,-15.308 5.695,-22.796c3.634,-11.154 14.263,-19.312 16.505,-30.825c4.083,-20.987 -21.288,-38.354 -19.617,-59.671c0.716,-9.104 6.337,-17.05 8.733,-25.866c3.125,-11.55 0.259,-24.559 -7.446,-33.717c-6.258,-7.446 -15.337,-12.342 -20.67,-20.475c-6.051,-9.225 -6.255,-20.921 -8.534,-31.713c-5.558,-26.291 -25.304,-49.137 -50.517,-58.437c-25.216,-9.3 -55.066,-4.75 -76.37,11.642c-0,-0 -6.059,27.462 22.133,32.054c28.188,4.592 41.25,-0.708 44.429,10.591c0,0 -3.208,13.201 8.442,25.805c11.658,12.608 22.608,9.971 17.729,21.279Z" style="fill:#0c2b34;fill-rule:nonzero;"/><path d="M2155.88,724.413c-0.012,0.075 -0.891,-0.021 -2.575,-0.271c-1.67,-0.259 -4.133,-0.817 -7.171,-1.934c-6.016,-2.2 -14.541,-6.991 -21.808,-16.146c-3.608,-4.533 -6.991,-10.037 -9.271,-16.504c-2.333,-6.429 -3.666,-13.716 -3.791,-21.391c-0.179,-7.684 0.912,-15.734 3.008,-23.792c1.046,-4.038 2.404,-8.058 3.987,-12.054c1.559,-4.013 3.476,-7.879 4.575,-11.971c1.184,-4.079 1.025,-8.246 -0.041,-12.221c-1.088,-3.979 -2.938,-7.712 -4.742,-11.408c-1.812,-3.692 -3.662,-7.375 -4.854,-11.292c-1.212,-3.883 -1.662,-8.071 -0.875,-11.975c1.662,-7.85 6.429,-13.658 9.242,-19.617c2.979,-5.908 3.908,-12.145 3.77,-17.749c-0.504,-11.35 -5.341,-19.742 -9.287,-24.58c-4.121,-4.846 -7.242,-6.687 -7.083,-6.891c-0,-0 3.304,1.558 7.721,6.341c4.233,4.775 9.458,13.284 10.183,25.063c0.25,5.804 -0.638,12.379 -3.683,18.6c-2.876,6.179 -7.476,12.029 -8.896,19.212c-1.467,7.238 1.958,14.692 5.67,21.946c1.817,3.7 3.742,7.529 4.917,11.784c1.167,4.225 1.338,8.995 0.05,13.35c-1.183,4.37 -3.137,8.287 -4.662,12.208c-1.559,3.917 -2.9,7.854 -3.938,11.8c-2.079,7.879 -3.183,15.737 -3.058,23.216c0.046,15.017 5.204,28.151 12.262,36.975c6.921,9.034 15.1,13.909 20.921,16.309c5.896,2.387 9.483,2.746 9.429,2.992Z" style="fill:#335863;fill-rule:nonzero;"/><path d="M2151.73,514.158c0.013,0.138 -2.183,0.534 -6.208,0.925c-4.008,0.334 -9.929,0.796 -17.158,-0.45c-7.063,-1.291 -16,-4.762 -21.659,-13.141c-2.775,-4.205 -3.875,-9.292 -5.683,-13.988c-1.7,-4.75 -4.987,-8.862 -9.492,-11.712c-9.116,-5.775 -19.841,-6.488 -29.225,-7.629c-9.429,-1.063 -18.283,-3.063 -24.283,-7.567c-6.046,-4.3 -9.146,-9.888 -9.946,-13.913c-0.45,-2.012 -0.412,-3.633 -0.321,-4.696c0.15,-1.07 0.267,-1.616 0.342,-1.608c0.267,0.004 -0.288,2.292 0.804,6.1c1.004,3.767 4.138,8.917 10,12.863c5.779,4.091 14.25,5.883 23.642,6.833c9.296,1.05 20.4,1.629 30.167,7.796c4.816,3.004 8.55,7.725 10.295,12.766c1.854,4.959 2.892,9.842 5.384,13.671c5.079,7.755 13.483,11.3 20.266,12.717c6.954,1.404 12.821,1.187 16.817,1.117c4.013,-0.13 6.242,-0.242 6.258,-0.084Z" style="fill:#335863;fill-rule:nonzero;"/><path d="M2141.4,480.225c0.021,0.108 -1.683,0.638 -4.883,0.721c-3.18,0.087 -7.93,-0.475 -13.155,-2.963c-2.608,-1.237 -5.283,-3.012 -7.741,-5.383c-2.5,-2.358 -4.55,-5.408 -6.467,-8.625c-3.758,-6.337 -7.371,-14.154 -15.162,-17.388c-7.634,-3.27 -16.042,-2.541 -23.346,-2.05c-7.375,0.73 -14.288,0.942 -19.925,-0.166c-5.675,-0.988 -9.934,-3.338 -12.292,-5.513c-1.196,-1.079 -2.008,-2.037 -2.454,-2.75c-0.467,-0.704 -0.679,-1.083 -0.621,-1.129c0.175,-0.133 1.171,1.342 3.613,3.225c2.425,1.879 6.52,3.892 12.008,4.654c5.487,0.875 12.092,0.525 19.5,-0.312c7.341,-0.579 16,-1.5 24.396,2.058c4.15,1.767 7.537,4.884 9.945,8.263c2.455,3.379 4.213,6.912 6.063,10.1c1.842,3.187 3.729,6.104 6.008,8.354c2.254,2.275 4.73,4.029 7.163,5.291c4.883,2.534 9.404,3.321 12.487,3.488c3.1,0.179 4.838,-0.062 4.863,0.125Z" style="fill:#335863;fill-rule:nonzero;"/><path d="M2168.32,715.421c-0.209,-0.096 1.116,-2.775 2.654,-7.904c1.529,-5.113 3.042,-12.8 2.771,-22.334c-0.325,-9.475 -2.605,-20.933 -8.875,-31.816c-3.05,-5.459 -7.684,-10.321 -11.459,-16.313c-1.87,-2.992 -3.483,-6.346 -4.191,-10.058c-0.696,-3.717 -0.28,-7.663 0.921,-11.246c2.337,-7.192 6.524,-13.254 7.425,-19.867c1.108,-6.633 -2.238,-12.683 -5.409,-18.062c-1.604,-2.742 -3.217,-5.45 -4.466,-8.284c-1.246,-2.833 -2.038,-5.816 -2.355,-8.699c-0.629,-5.792 0.046,-11.113 0.475,-15.888c1.196,-9.517 0.317,-17.337 -1.975,-22.142c-2.225,-4.866 -5.133,-6.325 -4.916,-6.521l0.504,0.238c0.304,0.2 0.792,0.462 1.325,0.95c1.112,0.904 2.592,2.508 3.846,4.963c2.637,4.866 3.77,13.041 2.741,22.641c-0.337,4.796 -0.891,10.054 -0.212,15.538c0.554,5.537 3.408,10.766 6.754,16.183c1.617,2.746 3.329,5.608 4.533,8.854c1.238,3.225 1.792,6.908 1.25,10.521c-1.008,7.287 -5.3,13.454 -7.454,20.229c-1.117,3.379 -1.475,6.854 -0.871,10.2c0.638,3.338 2.096,6.454 3.888,9.329c3.571,5.759 8.229,10.717 11.371,16.434c6.4,11.312 8.55,23.1 8.691,32.779c0.071,9.746 -1.716,17.525 -3.504,22.625c-0.937,2.546 -1.721,4.496 -2.4,5.754c-0.629,1.279 -0.991,1.929 -1.062,1.896Z" style="fill:#335863;fill-rule:nonzero;"/><path d="M1998.59,1491.78c-0,0 -28.059,-266.012 -29.671,-364.3c-1.613,-98.296 44.196,-195.279 44.196,-195.279l179.512,-7.592c0,0 35.479,99.734 36.117,141.621c1.233,81.413 -21.634,161.809 -18.996,226.388l6,199.162" style="fill:#011e27;fill-rule:nonzero;"/><path d="M2221.76,1164.76c0.038,0.063 -0.983,0.829 -2.929,2.217c-0.5,0.354 -1.046,0.742 -1.637,1.154c-0.563,0.479 -1.109,1.075 -1.738,1.679c-1.262,1.213 -2.729,2.584 -4,4.479c-5.796,7.101 -10.025,19.78 -14.041,35.605c-2.217,7.858 -4.459,16.675 -9.092,25.304c-1.238,2.108 -2.35,4.341 -3.983,6.304c-0.78,0.996 -1.492,2.071 -2.342,3.029l-2.767,2.763c-3.75,3.687 -8.496,6.466 -13.5,8.662c-10.054,4.404 -21.392,6.492 -31.758,11.692c-10.429,5.079 -18.246,14.925 -23.038,26.262c-5.054,11.292 -8.121,23.146 -12.337,34.213c-4.142,10.979 -9.779,21.666 -18.738,28.417c-8.887,6.995 -19.866,8.595 -29.379,9.208c-9.662,0.562 -18.612,0.287 -26.641,1.5c-7.996,1.108 -15.084,3.646 -20.092,7.583c-5.029,3.95 -7.963,8.904 -9.342,13.146c-1.421,4.292 -1.166,7.913 -0.696,10.217c0.467,2.341 1.125,3.458 0.98,3.521c-0,-0 -0.788,-1.055 -1.4,-3.417c-0.63,-2.334 -1.038,-6.079 0.312,-10.567c1.304,-4.442 4.225,-9.633 9.388,-13.85c5.179,-4.216 12.466,-6.917 20.62,-8.15c8.175,-1.333 17.225,-1.142 26.75,-1.779c9.421,-0.683 19.929,-2.333 28.284,-9.004c8.462,-6.434 13.9,-16.713 17.971,-27.583c4.141,-10.938 7.187,-22.809 12.345,-34.346c4.838,-11.534 13.129,-22.009 24.055,-27.267c10.77,-5.35 22.12,-7.371 31.92,-11.633c4.88,-2.113 9.413,-4.738 12.996,-8.221l2.654,-2.608c0.825,-0.913 1.509,-1.942 2.263,-2.896c1.583,-1.863 2.679,-4.025 3.896,-6.05c4.562,-8.33 6.891,-17.05 9.191,-24.863c4.196,-15.737 8.721,-28.625 14.859,-35.716c1.346,-1.888 2.895,-3.246 4.229,-4.43c0.662,-0.587 1.242,-1.175 1.833,-1.629c0.621,-0.392 1.196,-0.754 1.721,-1.087c2.058,-1.288 3.146,-1.925 3.183,-1.859Z" style="fill:#f9f9f9;fill-rule:nonzero;"/><path d="M2222.86,1041.66c0.076,-0.004 0.159,1.217 0.234,3.563c0.037,2.341 -0.246,5.816 -1.246,10.179c-2.083,8.671 -8.417,20.579 -20.279,31.354c-5.858,5.413 -12.933,10.646 -21.025,15.359c-8.042,4.77 -16.917,9.312 -26.004,14.45c-9.059,5.154 -18.4,10.974 -26.609,18.712c-8.316,7.642 -14.545,17.683 -20.154,28.321c-5.667,10.617 -10.683,21.429 -17.475,30.787c-3.371,4.675 -7.179,8.946 -11.392,12.6c-4.241,3.629 -8.858,6.58 -13.549,9.025c-9.417,4.888 -19.009,7.909 -27.896,10.692c-8.904,2.754 -17.217,5.192 -24.479,8.237c-7.275,3 -13.58,6.396 -18.671,10.001c-5.096,3.604 -8.971,7.387 -11.721,10.808c-5.55,6.871 -6.717,11.85 -7.029,11.683c-0.071,-0.021 0.325,-1.179 1.154,-3.375c0.966,-2.129 2.454,-5.3 5.212,-8.829c2.696,-3.562 6.559,-7.508 11.675,-11.271c5.113,-3.762 11.463,-7.3 18.788,-10.429c7.325,-3.175 15.671,-5.717 24.529,-8.542c8.846,-2.85 18.325,-5.916 27.508,-10.745c4.575,-2.417 9.046,-5.309 13.125,-8.826c4.063,-3.549 7.738,-7.691 11.021,-12.27c6.617,-9.155 11.588,-19.88 17.284,-30.567c5.629,-10.683 12.041,-21.017 20.612,-28.846c8.438,-7.908 17.946,-13.771 27.083,-18.908c9.175,-5.117 18.063,-9.592 26.075,-14.263c8.054,-4.6 15.063,-9.675 20.905,-14.933c11.808,-10.475 18.195,-21.996 20.5,-30.442c2.237,-8.529 1.491,-13.546 1.824,-13.525Z" style="fill:#f9f9f9;fill-rule:nonzero;"/><path d="M1969.83,1141.56c-0.037,0.012 -0.158,-0.255 -0.367,-0.805c-0.179,-0.558 -0.562,-1.358 -0.804,-2.483c-0.508,-2.225 -0.829,-5.742 0.417,-9.987c2.317,-8.484 11.533,-19.038 26.383,-24.33c7.392,-2.537 15.775,-4.07 24.509,-6.354c8.633,-2.329 18.041,-5.587 25.07,-12.808c3.488,-3.563 6.438,-7.804 8.888,-12.463c2.396,-4.708 4.367,-9.758 6.229,-14.971c3.734,-10.391 6.867,-21.687 13.208,-31.95c6.296,-10.345 16.559,-17.533 27.18,-21.133c10.596,-3.891 21.275,-5.616 31.187,-7.904c9.938,-2.163 19.234,-4.963 27.121,-9.233c7.771,-4.417 13.967,-10.296 18.35,-16.529c8.992,-12.5 11.342,-25.3 11.663,-33.755c0.195,-8.595 -1.171,-13.275 -0.888,-13.316c0,-0 1.667,4.6 1.729,13.333c-0.062,8.583 -2.204,21.696 -11.254,34.625c-4.417,6.446 -10.721,12.575 -18.725,17.213c-8.087,4.475 -17.571,7.383 -27.55,9.612c-9.963,2.35 -20.583,4.121 -30.892,7.946c-10.375,3.571 -20.012,10.375 -26.083,20.292c-6.121,9.887 -9.267,21.054 -13.046,31.512c-1.887,5.25 -3.908,10.387 -6.387,15.213c-2.542,4.795 -5.642,9.212 -9.321,12.929c-7.463,7.571 -17.292,10.85 -26.025,13.125c-8.859,2.237 -17.192,3.671 -24.479,6.075c-14.446,4.929 -23.617,15.045 -26.059,23.12c-1.321,4.05 -1.158,7.45 -0.8,9.655c0.467,2.191 0.842,3.341 0.746,3.371Z" style="fill:#f9f9f9;fill-rule:nonzero;"/><path d="M2207.43,1366.49c0.075,-0.009 0.171,0.887 0.292,2.612c0.095,1.721 -0.038,4.3 -0.771,7.521c-1.467,6.421 -6.425,15.204 -15.746,22.512c-4.592,3.7 -10.146,7.096 -16.525,9.809c-6.358,2.729 -13.4,4.887 -20.746,7.175c-7.337,2.291 -15.041,4.692 -22.533,8.229c-7.542,3.454 -14.508,8.513 -20.508,14.958c-6.08,6.367 -11.321,13.325 -17.142,19.463c-5.796,6.179 -12.379,11.266 -19.2,15.029c-13.713,7.571 -27.929,10.171 -39.629,10.3c-11.784,0.133 -21.138,-2.346 -27.271,-4.529c-3.096,-1.079 -5.396,-2.158 -6.921,-2.967c-1.538,-0.771 -2.329,-1.2 -2.296,-1.271c0.034,-0.066 0.888,0.238 2.479,0.875c1.571,0.675 3.904,1.621 7.009,2.563c6.15,1.916 15.408,4.116 26.975,3.796c11.479,-0.325 25.362,-3.034 38.675,-10.513c6.641,-3.729 12.975,-8.671 18.633,-14.742c5.696,-6.045 10.921,-12.999 17.117,-19.504c6.104,-6.575 13.446,-11.887 21.166,-15.379c7.696,-3.6 15.5,-5.975 22.859,-8.216c7.366,-2.238 14.366,-4.321 20.637,-6.921c6.25,-2.58 11.729,-5.825 16.267,-9.359c9.221,-6.991 14.2,-15.346 15.887,-21.521c1.642,-6.237 0.992,-9.929 1.292,-9.92Z" style="fill:#f9f9f9;fill-rule:nonzero;"/><path d="M2186.96,814.179l-34.708,0.821c-2.279,11.692 -7.854,19.692 -7.854,19.692c-29.021,-50.384 -51.525,-117.884 -57.112,-145.013c0.816,-2.712 1.779,-5.708 2.983,-9.062c1.387,-3.867 0.196,-11.188 -0.459,-15.254c-0.974,-6.038 -2.662,-14.167 -3.17,-17.93c-1.546,-11.462 -3.392,-13.262 -7.392,-11.966c-5.438,1.762 2.229,32.196 -2.229,32.854c-2.396,0.354 -5.325,-10.071 -6.171,-18.625c-0.85,-8.554 -4.721,-34.867 -7.55,-36.621c-4.142,-2.571 -7.754,1.496 -6.708,10.012c1.058,8.625 2.396,34.334 -2.125,34.684c-4.455,0.341 -8.192,-43.284 -8.192,-43.284c-0,0 0.704,-9.491 -4.529,-9.266c-9.442,0.412 -2.063,46.404 -1.258,50.758c0.566,3.033 -4.338,3.588 -4.771,0.3c-0.442,-3.387 -2.721,-43.629 -12.334,-43.304c-7.379,0.25 5.713,37.9 1.571,46.629c-4.142,8.725 -7.017,-29.641 -14.062,-29.112c-2.621,0.195 -4.559,0.708 0.258,22.421c2.592,11.67 10.196,33.129 16.846,50.891c11.162,60.213 60.15,252.821 136.958,217.563c42.975,-19.729 60.417,-107.167 60.417,-107.167l-38.409,-0.021Z" style="fill:#c18573;fill-rule:nonzero;"/><path d="M2038.85,658.929c-0,0 0.35,0.067 1.004,-0.137c0.583,-0.18 1.746,-0.913 1.567,-2.405c-0.1,-2.587 -0.509,-6.354 -1.105,-11.225c-0.445,-4.904 -1.912,-10.787 -1.916,-17.754c-0.059,-3.487 0.033,-7.237 0.233,-11.212c0.129,-1.988 0.167,-4.05 0.604,-6c0.329,-1.888 1.592,-4.046 3.05,-3.788l0.163,0.03l0.067,-0.005c1.483,-0.066 2.641,1.088 3.116,2.85c0.521,1.692 0.654,3.684 0.546,5.579l-0.004,0.08l0.008,0.054c0.971,10.662 2.021,22.329 4.45,34.792c0.342,1.554 0.688,3.12 1.171,4.699c0.238,0.792 0.521,1.588 0.867,2.388c0.22,0.412 0.366,0.804 0.708,1.237c0.296,0.363 0.671,0.996 1.742,1.092c1.729,-0.129 2.229,-1.437 2.62,-2.187c0.371,-0.867 0.605,-1.717 0.78,-2.563c0.358,-1.696 0.537,-3.383 0.666,-5.087c0.463,-6.792 0.225,-13.729 -0.275,-20.838c-0.162,-3.596 -1.046,-7.183 -0.437,-10.437c0.291,-1.604 0.958,-3.221 2.05,-3.888c0.533,-0.325 1.137,-0.396 1.796,-0.229l0.987,0.429c0.275,0.267 0.213,0.146 0.463,0.617c1.391,2.979 2.108,6.866 2.887,10.475c0.742,3.683 1.379,7.441 1.971,11.241c0.583,3.801 1.121,7.646 1.575,11.521c0.375,3.871 0.933,7.938 1.921,11.85c0.5,1.971 1.054,3.938 1.879,5.888c0.421,0.979 0.863,1.95 1.717,2.946c0.308,0.425 1.283,1.22 2.495,0.908c1.176,-0.392 1.509,-1.325 1.7,-1.871c0.676,-2.396 0.475,-4.387 0.442,-6.483c-0.087,-2.067 -0.258,-4.113 -0.433,-6.154c-0.3,-3.509 -0.634,-6.98 -0.754,-10.404c-0.055,-1.705 -0.059,-3.405 0.125,-5.013c0.104,-0.783 0.237,-1.588 0.504,-2.171l0.404,-0.621l0.162,-0.104l0.538,-0.154c2.767,-1.142 3.683,2.704 4.421,5.804c0.637,3.229 1.046,6.571 1.696,9.859c1.1,6.562 2.496,13.083 3.229,19.349c0.304,3.109 0.525,6.338 -0.367,8.971c-0.983,3.013 -1.958,5.992 -2.925,8.938l-0.083,0.266l0.058,0.28c5.079,22.404 12.117,42.45 18.646,60.245c6.596,17.78 13.192,33.146 19.013,45.713c5.804,12.575 11.012,22.267 14.604,28.875c1.825,3.133 3.266,5.613 4.337,7.45c1.009,1.679 1.554,2.537 1.613,2.504c0.058,-0.033 -0.384,-0.95 -1.284,-2.691c-0.991,-1.88 -2.325,-4.409 -4.012,-7.609c-3.388,-6.712 -8.392,-16.475 -14.004,-29.104c-5.629,-12.613 -12.05,-28.008 -18.492,-45.788c-6.375,-17.779 -13.292,-37.879 -18.229,-60.045l-0.025,0.545c0.958,-2.904 1.937,-5.845 2.917,-8.816c1.124,-3.4 0.791,-6.721 0.512,-9.971c-0.746,-6.517 -2.108,-12.846 -3.192,-19.442c-0.645,-3.258 -1.037,-6.604 -1.712,-10.02c-0.392,-1.7 -0.763,-3.421 -1.7,-5.159c-0.45,-0.842 -1.146,-1.8 -2.3,-2.317c-1.163,-0.504 -2.35,-0.362 -3.288,-0.133l-0.7,0.2l-0.945,0.534c-0.53,0.466 -0.834,0.991 -1.055,1.483c-0.437,1 -0.562,1.925 -0.691,2.846c-0.209,1.829 -0.196,3.608 -0.142,5.375c0.121,3.533 0.458,7.029 0.754,10.525c0.171,2.037 0.342,4.062 0.429,6.058c0.071,1.946 0.138,4.092 -0.308,5.6c-0.104,0.438 -0.313,0.354 -0.071,0.567l0.009,0.016l0.024,0.159l-0.008,-0.046l0.013,-0.142l0.062,-0.196l-0.254,-0.229c-0.454,-0.529 -0.917,-1.396 -1.271,-2.258c-0.741,-1.746 -1.287,-3.642 -1.771,-5.533c-0.954,-3.821 -1.491,-7.613 -1.879,-11.551c-0.462,-3.916 -1.012,-7.783 -1.608,-11.608c-0.604,-3.825 -1.254,-7.604 -2.013,-11.341c-0.858,-3.759 -1.412,-7.371 -3.17,-11.13c-0.105,-0.379 -0.851,-1.216 -1.305,-1.462c-0.466,-0.279 -0.987,-0.496 -1.55,-0.654c-1.125,-0.309 -2.495,-0.167 -3.525,0.491c-2.066,1.367 -2.704,3.538 -3.079,5.421c-0.333,1.942 -0.283,3.858 -0.071,5.708c0.209,1.78 0.384,3.525 0.521,5.284c0.525,7.017 0.792,13.921 0.375,20.521c-0.112,1.641 -0.283,3.275 -0.6,4.812c-0.15,0.775 -0.362,1.517 -0.633,2.158l-0.454,0.78c-0.154,0.35 -0.284,-0.079 -0.275,0.483c0.212,-0.429 0.008,-0.187 -0.155,-0.546l-0.495,-0.866c-0.296,-0.68 -0.554,-1.396 -0.784,-2.138c-0.466,-1.479 -0.821,-3.008 -1.158,-4.525c-2.471,-12.238 -3.633,-23.937 -4.704,-34.521l-0,0.133c0.087,-2.141 -0.05,-4.183 -0.683,-6.195c-0.317,-0.988 -0.784,-1.992 -1.626,-2.775c-0.829,-0.8 -2.025,-1.163 -3.087,-1.125l0.225,0.025c-1.671,-0.3 -2.896,0.716 -3.592,1.72c-0.712,1.034 -1.033,2.155 -1.279,3.234c-0.458,2.187 -0.45,4.271 -0.554,6.262c-0.154,4.009 -0.183,7.78 -0.067,11.304c0.134,7.109 1.734,12.996 2.3,17.838c0.725,4.842 1.263,8.6 1.5,11.133c0.263,1.204 -0.708,1.98 -1.216,2.18c-0.584,0.254 -0.929,0.291 -0.921,0.341Z" style="fill:#ae6859;fill-rule:nonzero;"/><path d="M1767.49,871.546c-0,-0 -11.53,-0.55 -24.138,2.767c-21.517,5.662 -58.662,28.175 -60.2,55.983l26.979,-0c0,-0 -15.108,32.162 -10.67,29.183c11.52,-7.729 34.454,-31.029 34.454,-31.029l33.575,-56.904Z" style="fill:#c18573;fill-rule:nonzero;"/><path d="M2135.52,387.429c-0.604,0.054 -3.05,-22.254 -5.471,-49.816c-2.425,-27.576 -3.904,-49.963 -3.308,-50.013c0.6,-0.054 3.045,22.25 5.47,49.821c2.425,27.562 3.905,49.958 3.309,50.008Z" style="fill:#0c2b34;fill-rule:nonzero;"/><path d="M2253.88,288.958c0.488,0.35 -17.741,26.809 -40.712,59.088c-22.971,32.292 -41.992,58.179 -42.479,57.833c-0.488,-0.35 17.737,-26.8 40.712,-59.091c22.971,-32.28 41.992,-58.176 42.479,-57.83Z" style="fill:#0c2b34;fill-rule:nonzero;"/><path d="M2303.06,408.867c0.125,0.587 -21.15,5.454 -47.504,10.87c-26.366,5.417 -47.829,9.334 -47.954,8.746c-0.117,-0.587 21.154,-5.454 47.517,-10.871c26.358,-5.416 47.825,-9.333 47.941,-8.745Z" style="fill:#0c2b34;fill-rule:nonzero;"/><path d="M885.938,981.179l-147.338,757.496l-19.288,99.163l983.596,-4.851c44.142,-0.22 83.263,-39.412 97.463,-97.645l174.412,-715.154c10.784,-44.205 -12.875,-90.184 -46.379,-90.151l-995.516,1.046c-21.98,0.025 -41.2,20.534 -46.95,50.096Z" style="fill:#fab915;fill-rule:nonzero;"/><path d="M1715.48,1831.86c7.079,-1.704 13.104,-3.595 18.238,-5.566c-5.892,2.596 -11.992,4.471 -18.238,5.566Z" style="fill:#81212e;fill-rule:nonzero;"/><path d="M1725.54,1809.55c-106.688,-0 -116.975,-122.108 -116.984,-122.196l-93.929,-756.883l413.775,-0.434l0.038,0c27.925,0 49,31.971 48.979,68.213c-0.008,7.217 -0.846,14.6 -2.638,21.938l-75.083,307.866l-29.908,122.642l-69.421,284.646c-7.321,30.025 -21.267,54.987 -39.113,72.158c0.9,-1.425 1.175,-2.271 1.175,-2.271c-13.42,2.971 -25.696,4.321 -36.891,4.321Z" style="fill:#ab8008;fill-rule:nonzero;"/><path d="M1608.56,1687.35l-104.141,-839.2c-4.267,-34.383 -31.659,-60.033 -64,-59.929l-228.359,0.746c-16.904,0.058 -33.108,7.242 -45.112,20.004l-108.434,115.267l-635.112,3.316c-38.812,0.2 -68.629,36.925 -63.483,78.188l96.691,775.633c4.279,34.338 31.621,59.954 63.917,59.892l1106.86,-2.188c123.279,2.555 135.05,-33.854 135.05,-33.854c-141.283,31.309 -153.862,-117.779 -153.875,-117.875Z" style="fill:#fab915;fill-rule:nonzero;"/></g></svg>