<?xml version="1.0" encoding="UTF-8" standalone="no"?><!DOCTYPE svg PUBLIC "-//W3C//DTD SVG 1.1//EN" "http://www.w3.org/Graphics/SVG/1.1/DTD/svg11.dtd"><svg width="100%" height="100%" viewBox="0 0 2084 1555" version="1.1" xmlns="http://www.w3.org/2000/svg" xmlns:xlink="http://www.w3.org/1999/xlink" xml:space="preserve" xmlns:serif="http://www.serif.com/" style="fill-rule:evenodd;clip-rule:evenodd;stroke-linejoin:round;stroke-miterlimit:2;"><g><rect x="0" y="1365.99" width="2083.33" height="1.042" style="fill:#e5e5e4;fill-rule:nonzero;"/><rect x="1736.58" y="1433.05" width="138.008" height="1.042" style="fill:#e5e5e4;fill-rule:nonzero;"/><rect x="1343.86" y="1444.36" width="36.221" height="1.042" style="fill:#e5e5e4;fill-rule:nonzero;"/><rect x="1652.44" y="1394.36" width="79.967" height="1.042" style="fill:#e5e5e4;fill-rule:nonzero;"/><rect x="218.579" y="1401.36" width="179.971" height="1.042" style="fill:#e5e5e4;fill-rule:nonzero;"/><rect x="435.65" y="1401.36" width="26.388" height="1.042" style="fill:#e5e5e4;fill-rule:nonzero;"/><rect x="547.796" y="1418.95" width="390.317" height="1.042" style="fill:#e5e5e4;fill-rule:nonzero;"/><path d="M182.979,2.675c-12.542,-0 -22.741,10.2 -22.741,22.737l-0,1130.96c-0,12.542 10.199,22.742 22.741,22.742l804.579,-0c12.534,-0 22.738,-10.2 22.738,-22.742l-0,-1130.96c-0,-12.537 -10.204,-22.737 -22.738,-22.737l-804.579,-0Zm804.579,1177.48l-804.579,0c-13.117,0 -23.783,-10.666 -23.783,-23.783l-0,-1130.96c-0,-13.112 10.666,-23.783 23.783,-23.783l804.579,0c13.109,0 23.779,10.671 23.779,23.783l0,1130.96c0,13.117 -10.67,23.783 -23.779,23.783Z" style="fill:#e5e5e4;fill-rule:nonzero;"/><path d="M1084.22,2.675c-12.538,-0 -22.738,10.2 -22.738,22.737l0,1130.96c0,12.542 10.2,22.742 22.738,22.742l804.579,-0c12.537,-0 22.742,-10.2 22.742,-22.742l-0,-1130.96c-0,-12.537 -10.205,-22.737 -22.742,-22.737l-804.579,-0Zm804.579,1177.48l-804.579,0c-13.113,0 -23.779,-10.666 -23.779,-23.783l-0,-1130.96c-0,-13.112 10.666,-23.783 23.779,-23.783l804.579,0c13.112,0 23.783,10.671 23.783,23.783l0,1130.96c0,13.117 -10.671,23.783 -23.783,23.783Z" style="fill:#e5e5e4;fill-rule:nonzero;"/><rect x="383.45" y="963.775" width="526.742" height="37.179" style="fill:#e5e5e4;fill-rule:nonzero;"/><rect x="681.15" y="963.775" width="229.042" height="37.179" style="fill:#d7d9d9;fill-rule:nonzero;"/><rect x="383.45" y="1000.95" width="77.829" height="365.033" style="fill:#e5e5e4;fill-rule:nonzero;"/><path d="M461.279,1038.63l-77.829,-26.504l-0,-11.171l77.829,0l0,37.675Z" style="fill:#d7d9d9;fill-rule:nonzero;"/><rect x="832.367" y="1000.95" width="77.825" height="365.033" style="fill:#d7d9d9;fill-rule:nonzero;"/><rect x="681.15" y="1000.95" width="77.825" height="365.033" style="fill:#e5e5e4;fill-rule:nonzero;"/><path d="M758.975,1038.63l-77.825,-26.504l-0,-11.171l77.825,0l0,37.675Z" style="fill:#d7d9d9;fill-rule:nonzero;"/><rect x="534.671" y="1000.95" width="77.821" height="365.033" style="fill:#d7d9d9;fill-rule:nonzero;"/><rect x="295.833" y="135.854" width="663.892" height="565.275" style="fill:#e5e5e4;fill-rule:nonzero;"/><rect x="959.725" y="135.854" width="7.404" height="565.275" style="fill:#d7d9d9;fill-rule:nonzero;"/><rect x="320.833" y="160.854" width="613.892" height="515.279" style="fill:#f0f0f0;fill-rule:nonzero;"/><path d="M620.367,597.896c37.396,-125.117 47.921,-309.367 127.691,-283.933c79.771,25.433 -24.729,298.049 -24.729,298.049l-102.962,-14.116Z" style="fill:#fff;fill-rule:nonzero;"/><path d="M684.8,604.133c-38.175,-181.171 -28.55,-421.687 -147.137,-416.166c-118.588,5.516 -0,424.045 -0,424.045l147.137,-7.879Z" style="fill:#fff;fill-rule:nonzero;"/><path d="M768.563,583.804l-259.584,0c-11.541,0 -20.304,8.471 -20.779,19.183c-5.279,119.58 14.308,241.467 50.762,360.788l198.788,-0c36.454,-119.321 56.038,-241.208 50.758,-360.788c-0.475,-10.712 -9.22,-19.183 -19.945,-19.183Z" style="fill:#e5e5e4;fill-rule:nonzero;"/><rect x="1344.54" y="198.904" width="14.625" height="1167.08" style="fill:#d7d9d9;fill-rule:nonzero;"/><rect x="1688.26" y="198.904" width="14.625" height="1167.08" style="fill:#d7d9d9;fill-rule:nonzero;"/><rect x="1240.83" y="198.904" width="14.625" height="1167.08" style="fill:#e5e5e4;fill-rule:nonzero;"/><rect x="1584.55" y="198.904" width="14.625" height="1167.08" style="fill:#e5e5e4;fill-rule:nonzero;"/><rect x="1240.83" y="190.925" width="462.058" height="15.954" style="fill:#e5e5e4;fill-rule:nonzero;"/><rect x="1240.83" y="476.713" width="462.058" height="15.958" style="fill:#e5e5e4;fill-rule:nonzero;"/><rect x="1240.83" y="762.504" width="462.058" height="15.954" style="fill:#e5e5e4;fill-rule:nonzero;"/><rect x="1240.83" y="1048.3" width="462.058" height="15.954" style="fill:#e5e5e4;fill-rule:nonzero;"/><rect x="1240.83" y="1334.09" width="462.058" height="15.954" style="fill:#e5e5e4;fill-rule:nonzero;"/><rect x="1599.17" y="190.921" width="103.712" height="15.958" style="fill:#d7d9d9;fill-rule:nonzero;"/><rect x="1599.17" y="476.713" width="103.712" height="15.954" style="fill:#d7d9d9;fill-rule:nonzero;"/><rect x="1599.17" y="762.5" width="103.712" height="15.958" style="fill:#d7d9d9;fill-rule:nonzero;"/><rect x="1599.17" y="1048.29" width="103.712" height="15.954" style="fill:#d7d9d9;fill-rule:nonzero;"/><rect x="1599.17" y="1334.08" width="103.712" height="15.954" style="fill:#d7d9d9;fill-rule:nonzero;"/><path d="M1427.23,288.129l0,-22.492l-55.558,0l-0,22.492c-0,14.692 -11.913,26.604 -26.608,26.604c-14.692,0 -26.605,11.913 -26.605,26.604l0,135.376l161.979,-0l0,-135.376c0,-14.691 -11.908,-26.604 -26.604,-26.604c-14.691,0 -26.604,-11.912 -26.604,-26.604Z" style="fill:#eaebea;fill-rule:nonzero;"/><rect x="1298.76" y="669.554" width="243.408" height="92.946" style="fill:#eaebea;fill-rule:nonzero;"/><rect x="1542.17" y="669.554" width="42.375" height="92.946" style="fill:#e0e0df;fill-rule:nonzero;"/><rect x="1542.17" y="710.908" width="42.375" height="10.242" style="fill:#e5e5e4;fill-rule:nonzero;"/><rect x="1298.76" y="710.908" width="243.408" height="10.242" style="fill:#f0f0f0;fill-rule:nonzero;"/><rect x="1286.81" y="1169.75" width="190.133" height="164.333" style="fill:#eaebea;fill-rule:nonzero;"/><rect x="1476.95" y="1169.75" width="33.1" height="164.333" style="fill:#e0e0df;fill-rule:nonzero;"/><rect x="1476.95" y="1242.87" width="33.1" height="18.108" style="fill:#e5e5e4;fill-rule:nonzero;"/><rect x="1286.81" y="1242.87" width="190.133" height="18.108" style="fill:#f0f0f0;fill-rule:nonzero;"/><rect x="1476.95" y="1223.7" width="33.1" height="6.471" style="fill:#e5e5e4;fill-rule:nonzero;"/><rect x="1286.81" y="1223.7" width="190.133" height="6.471" style="fill:#f0f0f0;fill-rule:nonzero;"/><rect x="1298.76" y="881.217" width="34.433" height="167.075" style="fill:#eaebea;fill-rule:nonzero;"/><rect x="1298.76" y="940.746" width="34.433" height="48.017" style="fill:#f9f9f9;fill-rule:nonzero;"/><rect x="1333.2" y="881.217" width="117.079" height="167.075" style="fill:#e0e0df;fill-rule:nonzero;"/><rect x="1347.46" y="859.613" width="38.888" height="188.679" style="fill:#e5e5e4;fill-rule:nonzero;"/><rect x="1347.46" y="919.579" width="38.888" height="29.054" style="fill:#f9f9f9;fill-rule:nonzero;"/><rect x="1347.46" y="968.088" width="38.888" height="29.05" style="fill:#f9f9f9;fill-rule:nonzero;"/><rect x="1386.35" y="859.613" width="132.221" height="188.679" style="fill:#d7d9d9;fill-rule:nonzero;"/><rect x="1408.67" y="881.217" width="20.938" height="167.075" style="fill:#eaebea;fill-rule:nonzero;"/><rect x="1412.27" y="902.383" width="13.742" height="124.742" style="fill:#f9f9f9;fill-rule:nonzero;"/><rect x="1429.6" y="881.217" width="71.2" height="167.075" style="fill:#e0e0df;fill-rule:nonzero;"/><rect x="1461.93" y="872.4" width="23.65" height="175.892" style="fill:#e5e5e4;fill-rule:nonzero;"/><rect x="1461.93" y="928.304" width="23.65" height="27.083" style="fill:#f9f9f9;fill-rule:nonzero;"/><rect x="1461.93" y="973.521" width="23.65" height="27.083" style="fill:#f9f9f9;fill-rule:nonzero;"/><rect x="1485.58" y="872.4" width="80.404" height="175.892" style="fill:#d7d9d9;fill-rule:nonzero;"/><path d="M1489.98,617.742c-0,-28.617 -23.196,-51.813 -51.813,-51.813c-28.616,0 -51.812,23.196 -51.812,51.813c-0,28.616 23.196,51.812 51.812,51.812c28.617,0 51.813,-23.196 51.813,-51.812Z" style="fill:#f0f0f0;fill-rule:nonzero;"/><path d="M1531.42,633.625c-0,-19.842 -16.083,-35.929 -35.929,-35.929c-19.842,-0 -35.929,16.087 -35.929,35.929c-0,19.842 16.087,35.929 35.929,35.929c19.846,0 35.929,-16.087 35.929,-35.929Z" style="fill:#e5e5e4;fill-rule:nonzero;"/><path d="M1849.54,1506.99c-0,26.058 -361.692,47.179 -807.871,47.179c-446.175,-0 -807.871,-21.121 -807.871,-47.179c-0,-26.059 361.696,-47.184 807.871,-47.184c446.179,0 807.871,21.125 807.871,47.184Z" style="fill:#f0f0f0;fill-rule:nonzero;"/><path d="M1060.64,1183.87l-535.187,-0l0,276.4c0,14.887 12.071,26.954 26.962,26.954l481.263,0c14.892,0 26.962,-12.067 26.962,-26.954l0,-276.4Z" style="fill:#e3a324;fill-rule:nonzero;"/><path d="M525.45,1183.87l378.679,-0l-46.591,-59.617c-5.113,-6.533 -17.792,-11.838 -28.33,-11.838l-340.525,0c-10.537,0 -14.933,5.305 -9.825,11.838l46.592,59.617Z" style="fill:#3073ba;fill-rule:nonzero;"/><path d="M681.963,1183.87l-156.513,-0l-46.592,-59.617c-1.445,-1.85 -2.133,-3.6 -2.129,-5.162c0.004,-3.95 4.404,-6.676 11.954,-6.676l340.525,0c10.538,0 23.217,5.305 28.33,11.838l10.195,13.046l-110.854,-0c-10.537,-0 -23.217,3.454 -28.325,7.717l-46.591,38.854Z" style="fill:#cc8f00;fill-rule:nonzero;"/><path d="M1060.64,1183.87l-378.679,-0l46.596,-38.858c5.108,-4.263 17.788,-7.717 28.325,-7.717l340.525,-0c10.533,-0 14.933,3.454 9.825,7.717l-46.592,38.858Z" style="fill:#db9e27;fill-rule:nonzero;"/><path d="M1033.67,1487.23l-324.754,0c-14.892,0 -26.963,-12.067 -26.963,-26.954l0,-276.4l378.679,-0l0,276.4c0,14.887 -12.07,26.954 -26.962,26.954Z" style="fill:#e2b252;fill-rule:nonzero;"/><path d="M634.954,1373.38l-12.562,-8.654l-11.446,8.654l-8.175,-11.5l-8.017,11.5l-9.212,-10.329l-13.088,10.329l0,-189.504l62.5,-0l0,189.504Z" style="fill:#8f6527;fill-rule:nonzero;"/><path d="M658.525,768.9l-67.3,-56.5l-2.679,3.192l67.3,56.5" style="fill:#8f6527;fill-rule:nonzero;"/><path d="M693.396,798.175l-20.525,-17.229l-2.679,3.187l20.525,17.234" style="fill:#8f6527;fill-rule:nonzero;"/><path d="M893.642,918.029l221.991,-277.475l-295.575,-248.137l-195.983,224.7l-29.012,56.212c-6.092,6.988 -5.251,16.788 1.975,22.854l266.729,223.925c8.604,7.221 22.612,6.25 29.875,-2.079Z" style="fill:#e2a101;fill-rule:nonzero;"/><path d="M757.688,806.117l-8.067,-12.775l-10.471,-3.063l-3.937,-10.179l-8.563,-0.504l-4.371,-11.946l-12.85,-2.758l31.067,-50.038l48.546,40.754l-31.354,50.509Z" style="fill:#8f6527;fill-rule:nonzero;"/><path d="M906.875,854.533l-117.833,-98.925l0.6,-0.97l-48.255,-41.221l-0.891,1.437l-116.421,-97.737l21.379,17.945l137.983,-154.491l261.221,220.262l61.313,-68.391l-0.004,-0l-199.092,222.091Zm-282.8,-237.416l195.983,-224.7l-195.983,224.7Z" style="fill:#996d01;fill-rule:nonzero;"/><path d="M789.042,755.608l-48.546,-40.754l0.891,-1.437l48.255,41.221l-0.6,0.97Z" style="fill:#ffdf9c;fill-rule:nonzero;"/><path d="M1105.97,632.442l-199.096,222.091l82.433,6.1l195.984,-224.704l-79.321,-3.487Z" style="fill:#3073ba;fill-rule:nonzero;"/><path d="M989.308,860.633l-46.966,-3.475l-35.467,-2.625l199.096,-222.091l79.321,3.487l-123.813,141.954l-1.041,1.196l-49.101,56.296l-1.041,1.192l-20.988,24.066Z" style="fill:#f9ba20;fill-rule:nonzero;"/><path d="M740.737,388.925l-199.095,222.092l82.433,6.1l195.983,-224.7l-79.321,-3.492Z" style="fill:#3073ba;fill-rule:nonzero;"/><path d="M624.075,617.117l-82.433,-6.1l199.095,-222.092l79.321,3.492l-195.983,224.7Z" style="fill:#f9ba20;fill-rule:nonzero;"/><path d="M1105.97,632.442l-44.488,-37.35l0,-0.005l44.492,37.355m-45.533,-38.225l-49.101,-41.221l49.101,41.221Zm-50.142,-42.096l-42.683,-35.834l42.683,35.834Z" style="fill:#c5c7c7;fill-rule:nonzero;"/><path d="M1011.34,552.996l-1.041,-0.875l1.041,0.875Z" style="fill:#b3b6b6;fill-rule:nonzero;"/><path d="M1061.48,595.092l-1.041,-0.875l1.041,0.87l0,0.005Z" style="fill:#b3b6b6;fill-rule:nonzero;"/><path d="M953.038,504.05l-18.313,-15.375l18.313,15.375Z" style="fill:#b3b6b6;fill-rule:nonzero;"/><path d="M934.725,488.675l-114.667,-96.258l114.667,96.258Z" style="fill:#bdbfbf;fill-rule:nonzero;"/><path d="M1044.66,700.833l-261.221,-220.262l36.621,-88.154l114.667,96.258l18.313,15.375l-1.646,5.746c5.387,2.316 10.783,4.487 16.221,6.491l42.683,35.834l1.041,0.875l49.101,41.221l1.041,0.875l44.488,37.35l-61.309,68.391Z" style="fill:#b17f04;fill-rule:nonzero;"/><path d="M645.454,635.062l-21.379,-17.945l195.983,-224.7l-36.621,88.154l-137.983,154.491Z" style="fill:#db9d05;fill-rule:nonzero;"/><path d="M1175.06,214.358c0.787,2.692 0.004,5.292 -1.759,5.809c-1.758,0.512 -3.821,-1.25 -4.612,-3.938c-0.788,-2.692 -0.005,-5.291 1.754,-5.804c1.758,-0.517 3.825,1.246 4.617,3.933Z" style="fill:#0c2b34;fill-rule:nonzero;"/><path d="M1175.31,219.575c-0,-0 -1.563,17.317 -6.101,26.779c6.063,3.046 13.559,-1.358 13.559,-1.358l-7.458,-25.421Z" style="fill:#532a12;fill-rule:nonzero;"/><path d="M1180.53,196.529c0.354,-0.187 0.642,-0.5 0.783,-0.908c0.305,-0.854 -0.145,-1.796 -1.008,-2.1c-8.592,-3.025 -14.667,1.529 -14.929,1.729c-0.721,0.554 -0.858,1.587 -0.3,2.304c0.554,0.721 1.591,0.85 2.3,0.313c0.2,-0.15 4.983,-3.655 11.837,-1.238c0.45,0.159 0.925,0.109 1.317,-0.1Z" style="fill:#0c2b34;fill-rule:nonzero;"/><path d="M1304.8,314.775c4.188,-3.779 -4.254,-18.937 -9.287,-21.05c-13.425,-5.642 -68.317,-0.071 -88.954,17.679c-5.909,9.388 -1.621,19.533 -1.621,19.533l99.862,-16.162Z" style="fill:#fff;fill-rule:nonzero;"/><path d="M1267.67,232.175c1.821,22.083 7.287,62.604 20.342,71.825c-0,-0 -3.113,26.533 -49.855,33.437c-51.395,7.588 -28.329,-21.887 -28.329,-21.887c27.063,-10.842 23.263,-31.55 15.492,-50.371l19.863,-22.762c7.454,-8.546 21.554,-21.546 22.487,-10.242Z" style="fill:#783d1b;fill-rule:nonzero;"/><path d="M1473.44,1423.47l-0.934,0.396c-0.625,0.366 -0.991,0.862 -1.129,1.508c-0.312,1.512 0.271,1.933 0.467,2.071c1.996,1.425 8.787,-0.621 13.496,-2.983c-3.404,-0.884 -8.875,-1.921 -11.9,-0.992Zm6.108,5.058c-3.412,1.046 -6.871,1.538 -8.662,0.254c-0.755,-0.537 -1.559,-1.621 -1.117,-3.741c0.229,-1.117 0.871,-1.988 1.904,-2.592c4.487,-2.629 15.608,0.842 16.083,0.992l0.563,0.691l-0.396,0.8c-1.575,0.934 -4.95,2.546 -8.375,3.596Z" style="fill:#3073ba;fill-rule:nonzero;"/><path d="M1476.91,1413.6l-0.35,0.129c-0.983,0.438 -0.929,0.934 -0.904,1.146c0.254,2.321 6.179,6.521 10.392,8.071c-1.246,-2.688 -4.021,-7.946 -7.117,-9.213c-0.708,-0.287 -1.371,-0.333 -2.021,-0.133Zm10.838,11.413l-0.404,0.02c-4.009,-0.816 -12.892,-6.054 -13.325,-9.975c-0.08,-0.712 0.058,-2.02 1.871,-2.829c1.179,-0.525 2.408,-0.529 3.662,-0.017c4.829,1.967 8.563,11.313 8.721,11.709l-0.133,0.833l-0.392,0.259Z" style="fill:#3073ba;fill-rule:nonzero;"/><path d="M1229.83,1466.54c-0.579,0 -1.116,0.059 -1.591,0.192c-0.763,0.2 -1.288,0.579 -1.613,1.15c-0.583,1.021 -0.371,1.529 -0.158,1.817c1.616,2.25 10.4,2.3 16.862,1.387c-3.225,-1.654 -9.441,-4.546 -13.5,-4.546Zm5.509,6.742c-4.459,0 -8.767,-0.617 -10.213,-2.617c-0.504,-0.704 -0.904,-1.895 0.071,-3.6c0.542,-0.958 1.425,-1.604 2.608,-1.925c5.788,-1.575 17.934,5.35 18.45,5.642l0.4,0.846l-0.65,0.675c-2.22,0.446 -6.508,0.979 -10.666,0.979Z" style="fill:#3073ba;fill-rule:nonzero;"/><path d="M1237.36,1458.23l-0.492,0.021c-1.483,0.154 -1.579,0.737 -1.608,0.929c-0.38,2.358 5.266,8.263 9.545,10.838c-0.445,-2.738 -1.683,-8.334 -4.587,-10.721c-0.875,-0.713 -1.813,-1.067 -2.858,-1.067Zm8.479,14.088l-0.334,-0.071c-4.195,-1.879 -12.508,-9.4 -11.871,-13.329c0.151,-0.925 0.805,-2.071 3.067,-2.3c1.688,-0.175 3.217,0.304 4.563,1.412c4.42,3.629 5.358,12.992 5.4,13.392l-0.342,0.742l-0.483,0.154Z" style="fill:#3073ba;fill-rule:nonzero;"/><path d="M1284.07,1471.5l-34.759,-0l-3.462,-80.492l34.758,0l3.463,80.492Z" style="fill:#783d1b;fill-rule:nonzero;"/><path d="M1528.45,1416.54l-32.029,11.041l-33.242,-75.896l32.029,-11.041l33.242,75.896Z" style="fill:#783d1b;fill-rule:nonzero;"/><path d="M1488.8,1419.62l37.334,-11.45c1.358,-0.417 2.824,0.166 3.524,1.4l15.625,27.525c1.621,2.854 0.105,6.496 -3.054,7.404c-13.1,3.771 -19.666,4.95 -36.083,9.983c-10.104,3.1 -35.592,12.763 -49.896,15.638c-13.987,2.816 -19.012,-10.888 -13.416,-13.346c25.099,-11.025 35.262,-23.571 41.2,-33.454c1.07,-1.784 2.779,-3.092 4.766,-3.7Z" style="fill:#0c2b34;fill-rule:nonzero;"/><path d="M1249.54,1467.47l37.958,-0c1.421,-0 2.65,0.987 2.958,2.375l6.867,30.896c0.708,3.2 -1.721,6.237 -5,6.179c-13.692,-0.234 -33.479,-1.033 -50.692,-1.033c-20.121,-0 -28.608,1.1 -52.208,1.1c-14.267,-0 -18.229,-14.43 -12.254,-15.738c27.191,-5.946 40.5,-6.583 63.995,-21.071c2.555,-1.575 5.371,-2.708 8.376,-2.708Z" style="fill:#0c2b34;fill-rule:nonzero;"/><path d="M1350.59,326.171c10.105,9.296 18.867,18.587 27.938,28.279c8.867,9.746 17.508,19.771 25.675,30.454c8.233,10.638 16.058,21.808 23.158,34.35c3.538,6.317 6.934,12.95 9.767,20.588c0.7,1.937 1.417,3.8 2.017,5.958c0.62,2.075 1.233,4.137 1.704,6.517l0.712,3.45l0.488,3.833c0.3,1.85 0.6,6.917 0.017,10.617c-1.084,7.812 -4.138,13.841 -7.171,18.483c-3.084,4.617 -6.388,8.054 -9.592,11.058c-6.45,5.934 -12.767,10.109 -19.025,13.871c-12.529,7.367 -24.958,12.654 -37.421,17.434c-24.979,9.387 -49.883,15.924 -75.733,20.825l-7.288,-25.059c22.625,-9.804 45.53,-20.367 66.796,-31.687c10.596,-5.688 20.888,-11.788 29.608,-18.238c4.321,-3.179 8.259,-6.566 10.809,-9.562c1.279,-1.459 2.146,-2.846 2.475,-3.567c0.304,-0.712 -0.129,-0.625 -0.454,0.879c-0.275,2.792 -0.213,0.625 -0.905,-0.871c-0.187,-0.725 -0.587,-1.662 -0.962,-2.596c-0.304,-0.883 -0.842,-1.929 -1.304,-2.937c-1.971,-4.092 -4.579,-8.65 -7.525,-13.208c-5.988,-9.15 -13.234,-18.425 -20.838,-27.542c-7.662,-9.104 -15.741,-18.129 -24.029,-27.021c-8.141,-8.904 -17.021,-17.804 -25.171,-26.075l36.254,-38.233Z" style="fill:#783d1b;fill-rule:nonzero;"/><path d="M1295.28,522.967l-32.992,9.916l21.084,34.671c-0,0 19.4,-8.021 23.658,-24.479l-11.75,-20.108Z" style="fill:#783d1b;fill-rule:nonzero;"/><path d="M1249.26,545.142l12.905,28.604l21.204,-6.192l-21.084,-34.671l-13.025,12.259Z" style="fill:#783d1b;fill-rule:nonzero;"/><path d="M1273.75,335.592c-3.142,33.275 67.383,84.891 67.383,84.891l67.883,-46.454c0,0 -13.954,-29.904 -50.091,-53.112c-38.838,-24.942 -81.267,-26.746 -85.175,14.675Z" style="fill:#3073ba;fill-rule:nonzero;"/><path d="M1353.08,412.308c-1.9,-21.5 -3.133,-43.85 -3.321,-66.575c-0.175,-21.05 -15.32,-38.408 -35.079,-42.212c13.658,1.562 29.217,7.75 44.242,17.396c36.137,23.208 50.091,53.112 50.091,53.112l-8.662,5.929l-43.483,29.759l-3.788,2.591Z" style="fill:#eaa701;fill-rule:nonzero;"/><path d="M1158.35,332.904c-0,0 -30.492,46.746 41.858,297.508l183.917,-27.162c-2.596,-25.429 -33.358,-136.287 -34.367,-257.517c-0.204,-24.608 -20.87,-44.179 -45.45,-42.929c-5.366,0.275 -10.866,0.658 -16.291,1.196c-23.671,2.337 -57.804,6.612 -78.184,11.55c-26.87,6.508 -51.483,17.354 -51.483,17.354Z" style="fill:#3073ba;fill-rule:nonzero;"/><path d="M1200.21,630.412c-19.937,-69.104 -32.062,-122.704 -39.171,-164.112c0.005,-0.004 0.009,-0.004 0.013,-0.008c1.813,10.52 3.946,21.829 6.458,33.983c10.754,-14.954 29.667,-44.562 31.221,-70.237c9.192,-12.034 15.875,-25.334 15.883,-38.588c0,-3.683 -0.508,-7.358 -1.624,-11.004c-7.384,-24.129 -23.896,-48.846 -45.271,-48.846c-3.084,0 -6.275,0.517 -9.546,1.621c0.117,-0.217 0.179,-0.317 0.179,-0.317c-0,0 24.613,-10.846 51.483,-17.354c20.38,-4.938 54.513,-9.213 78.184,-11.55c5.425,-0.538 10.925,-0.921 16.291,-1.196c0.746,-0.037 1.488,-0.054 2.225,-0.054c23.588,0 43.025,19.121 43.225,42.983c1.009,121.23 31.771,232.088 34.367,257.517l-24.958,3.683l-14.625,2.163l-89.088,13.158l-14.625,2.158l-40.621,6Z" style="fill:#faba1a;fill-rule:nonzero;"/><path d="M1167.51,500.275c-2.512,-12.154 -4.645,-23.463 -6.458,-33.983c11.2,-8.525 26.35,-21.43 37.679,-36.254c-1.554,25.675 -20.467,55.283 -31.221,70.237Z" style="fill:#b0812c;fill-rule:nonzero;"/><path d="M1282.4,1432.52l-0.016,-0l-1.784,-41.492l0.021,0l1.779,41.492Zm-34.775,-0l-0.15,-3.534l0.15,3.534Z" style="fill:#c3c5c5;fill-rule:nonzero;"/><path d="M1282.39,1432.52l-34.759,-0l-0.15,-3.534l-1.625,-37.958l34.75,0l1.784,41.492Z" style="fill:#d89793;fill-rule:nonzero;"/><path d="M1512.35,1379.78l-5.588,-12.754l0.021,0l5.592,12.746l-0.025,0.008Zm-6.025,-13.795l-0.017,-0l-0.9,-2.055l0.017,-0.004l0.9,2.059Z" style="fill:#c3c5c5;fill-rule:nonzero;"/><path d="M1506.78,1367.03l-0.021,0l-0.454,-1.041l0.017,-0l0.458,1.041Z" style="fill:#b2b5b6;fill-rule:nonzero;"/><path d="M1480.33,1390.83l-6.95,-15.842l32.025,-11.05l0.9,2.055l0.454,1.041l5.588,12.754l-32.017,11.042Z" style="fill:#d89793;fill-rule:nonzero;"/><path d="M1263.11,182.321c7.671,33.633 13.867,52.929 2.159,74.783c-17.613,32.875 -62.834,29.717 -80.396,-0.95c-15.808,-27.6 -25.692,-77.962 2.787,-100.604c28.059,-22.304 67.784,-6.863 75.45,26.771Z" style="fill:#783d1b;fill-rule:nonzero;"/><path d="M1160.85,172.662c0.421,-0.4 -5.262,-4.757 -11.175,-9.893c-6.205,-5.433 -7.654,-14.517 -3.447,-21.61c0.001,0 0.001,0 0.001,0c3.801,-6.403 11.433,-9.451 18.6,-7.427c12.082,3.391 32.494,1.783 48.284,-1.524c24.304,-5.084 42.514,0.964 41.742,14.723c1.882,0.047 3.582,0.208 5.066,0.498c2.317,-0.983 5.183,-5.325 5.183,-5.325c0,0 0.867,5.471 -2.954,7.554c2.779,-0.521 9.625,0.78 11.546,4.834c-6.033,-1.275 -9.55,0.55 -9.55,0.55c-0,-0 25.183,3.779 16.146,38.454c-9.954,38.192 -6.65,60.183 -6.65,60.183c-0,0 -18.58,14.354 -34.784,11.692c-17.245,-18.984 -42.129,-41.821 -43.287,-50.075l-12.8,7.829l1.225,-43.75c-0,-0 -13.425,0.925 -23.146,-6.713Z" style="fill:#0c2b34;"/><path d="M1213.59,205.346c2.641,8.637 1.675,18.054 -1.113,25.012c-4.191,10.463 -13.412,8.35 -18.217,-0.712c-4.325,-8.154 -7.354,-23.429 -0.274,-30.975c6.97,-7.433 16.587,-3.208 19.604,6.675Z" style="fill:#783d1b;fill-rule:nonzero;"/><path d="M1265.45,620.775c0,-0 29.842,253.962 51.496,353.479c23.717,108.979 140.679,406.167 140.679,406.167l58.492,-20.183c-0,-0 -74.992,-223.75 -94.896,-376.105c-15.288,-117.029 -37.1,-380.883 -37.1,-380.883l-118.671,17.525Z" style="fill:#0c2b34;fill-rule:nonzero;"/><path d="M1442.7,1361.73l11.975,24.967l68.129,-22.117l-7.988,-20.345l-72.116,17.495Z" style="fill:#3073ba;fill-rule:nonzero;"/><path d="M1310.35,940.746c-0.854,-4.708 -1.717,-9.579 -2.583,-14.583c0.866,5.004 1.729,9.879 2.583,14.583Z" style="fill:#9da0a1;fill-rule:nonzero;"/><path d="M1313.73,958.633c-1.112,-5.646 -2.238,-11.625 -3.375,-17.887c1.137,6.258 2.267,12.233 3.375,17.879l0,0.008Z" style="fill:#a5a7a8;fill-rule:nonzero;"/><path d="M1313.73,958.625c-1.108,-5.646 -2.238,-11.621 -3.375,-17.879c-0.854,-4.704 -1.717,-9.579 -2.583,-14.583c-8.905,-51.471 -18.254,-117.555 -25.867,-175.071c50.896,22.437 47.05,125.562 31.825,207.533Z" style="fill:#011721;fill-rule:nonzero;"/><path d="M1200.21,630.412c0,0 -24.75,238.58 -20.966,344.575c3.929,110.255 55.437,449.492 55.437,449.492l58.883,0c0,0 -10.837,-332.8 -8.216,-441.075c2.854,-118.05 47.116,-372.525 47.116,-372.525l-132.254,19.533Z" style="fill:#0c2b34;fill-rule:nonzero;"/><path d="M1223.35,1401.03l3.321,24.446l71.625,-0l1.937,-21.817l-76.883,-2.629Z" style="fill:#3073ba;fill-rule:nonzero;"/><path d="M1188.81,391.488c-6.508,10.333 -13.1,19.624 -19.954,29.187c-6.792,9.504 -13.966,18.742 -21.271,27.917c-14.771,18.25 -30.525,35.9 -48.2,52.575c-4.683,4.05 -8.987,8.225 -14.004,12.116l-3.662,2.95l-1.829,1.471c-0.684,0.538 -0.959,0.813 -2.35,1.808c-4.626,3.371 -9.196,5.45 -13.446,6.959c-8.567,2.929 -16.013,3.604 -23.03,3.933c-6.999,0.288 -13.55,-0.154 -19.891,-0.892c-25.279,-3.108 -47.554,-10.158 -69.779,-19.716l7.187,-25.092c21.6,2.158 44.158,4.004 64.275,3.092c5,-0.288 9.829,-0.796 14.138,-1.546c4.262,-0.75 8.133,-1.979 10.162,-3.183c1.029,-0.55 1.567,-1.084 1.433,-1.2c-0.237,0.166 0.53,-0.525 0.925,-0.905l1.396,-1.312l2.784,-2.617c3.75,-3.333 7.316,-7.379 10.979,-11.025c7.212,-7.762 14.35,-15.716 21.175,-24.187c6.954,-8.296 13.658,-16.967 20.308,-25.684c6.679,-8.712 13.125,-17.65 19.654,-26.533c6.421,-8.858 12.834,-18.187 18.821,-26.816l44.179,28.7Z" style="fill:#793b00;fill-rule:nonzero;"/><path d="M1212.99,380.446c14.02,45.808 -67.271,96.642 -67.271,96.642l-52.821,-67.317c-0,-0 14.65,-29.554 43.737,-61.213c35.934,-39.104 65.684,-2.987 76.355,31.888Z" style="fill:#3073ba;fill-rule:nonzero;"/><path d="M1145.72,477.088l-10.613,-13.525l-33.029,-42.096l-9.179,-11.696c-0,-0 14.65,-29.554 43.737,-61.213c11.071,-12.05 21.563,-16.958 31.084,-16.958c21.375,0 37.887,24.717 45.271,48.846c1.116,3.646 1.624,7.321 1.624,11.004c-0.008,13.254 -6.691,26.554 -15.883,38.588c-11.329,14.824 -26.479,27.729 -37.679,36.254c-0.004,0.004 -0.008,0.004 -0.013,0.008c-8.912,6.779 -15.32,10.788 -15.32,10.788Z" style="fill:#fab915;fill-rule:nonzero;"/><path d="M970.729,486.529l-42.758,-7.841l4.5,37.024c-0,0 22.221,12.446 38.379,-7.041l-0.121,-22.142Z" style="fill:#783d1b;fill-rule:nonzero;"/><path d="M911.55,487.038l9.25,26.699l11.671,1.975l-4.5,-37.024l-16.421,8.35Z" style="fill:#783d1b;fill-rule:nonzero;"/></g></svg>