<?xml version="1.0" encoding="UTF-8" standalone="no"?><!DOCTYPE svg PUBLIC "-//W3C//DTD SVG 1.1//EN" "http://www.w3.org/Graphics/SVG/1.1/DTD/svg11.dtd"><svg width="100%" height="100%" viewBox="0 0 1650 1200" version="1.1" xmlns="http://www.w3.org/2000/svg" xmlns:xlink="http://www.w3.org/1999/xlink" xml:space="preserve" xmlns:serif="http://www.serif.com/" style="fill-rule:evenodd;clip-rule:evenodd;stroke-linejoin:round;stroke-miterlimit:2;"><path d="M170.259,1358.06c0,-0 12.488,-51.368 29.68,-122.084c58.448,-240.425 269.967,-412.424 517.258,-420.615c3.96,-0.131 7.905,-0.262 11.832,-0.392c156.755,-5.193 304.475,-74.623 408.5,-192.001c18.375,-20.733 37.11,-41.873 55.509,-62.634c105.159,-118.657 254.912,-188.258 413.414,-192.143c239.57,-5.871 566.02,-13.872 566.02,-13.872l282.811,955.287l-1418.8,463.597l-866.225,-415.143Z" style="fill:#bdbaba;fill-opacity:0.4;"/><path d="M734.688,1628.57l-91.239,29.813l-866.224,-415.144l29.679,-122.084c58.448,-240.424 269.967,-412.423 517.258,-420.615l11.833,-0.392c156.754,-5.192 304.474,-74.623 408.499,-192.001l55.509,-62.634c105.159,-118.657 254.913,-188.258 413.414,-192.142l566.02,-13.872l36.58,123.56l-209.565,5.136c-158.502,3.885 -308.255,73.486 -413.414,192.143l-55.509,62.634c-104.025,117.378 -251.745,186.808 -408.5,192.001l-11.832,0.392c-247.291,8.191 -458.81,180.19 -517.258,420.615l-29.68,122.084l564.429,270.506Z" style="fill-opacity:0.3;"/></svg>